<svg width="860" height="252" viewBox="0 0 860 252" fill="none" xmlns="http://www.w3.org/2000/svg">
    <path d="M182.443 88.29C182.224 89.6065 182.041 90.6669 181.713 92.605C182.978 91.7396 184.134 91.3739 184.292 90.7644C184.864 88.4606 186.434 88.5216 188.235 88.5826C190.426 88.6557 192.64 88.4607 194.818 88.5826C196.181 88.6679 197.629 88.8873 198.834 89.4724C201.949 90.9839 204.87 92.4588 208.606 91.2033C210.005 90.7279 211.928 91.5933 213.558 92.0565C215.104 92.4832 216.564 93.1658 218.535 93.9215C211.818 101.906 205.186 109.853 201.621 120.714C206.16 113.571 210.212 107.159 214.313 100.772C216.296 97.688 218.365 94.4091 222.296 93.8971C225.216 93.5192 228.441 93.5558 231.154 94.5066C232.639 95.0185 233.333 97.7977 234.537 99.7968C234.489 94.7138 238.577 92.4588 241.522 89.4846C242.082 88.9117 243.725 89.0579 244.735 89.3505C249.286 90.6669 249.091 90.6791 250.503 86.2056C252.438 80.0744 254.798 74.0772 256.733 67.9338C258.218 63.2409 259.398 58.4383 260.566 53.6478C260.846 52.5142 260.664 51.2222 260.457 50.0398C260.007 47.5654 259.715 45.2859 262.246 43.555C263.049 43.0065 263.353 41.7145 263.815 40.7271C264.022 40.2883 263.888 39.5935 264.18 39.301C268.464 35.1444 267.49 29.2325 268.975 24.1861C270.301 19.6883 268.999 14.7516 266.079 10.9973C264.059 8.40092 264.959 7.15759 266.797 5.57298C267.247 5.18292 267.795 4.87819 268.318 4.57346C270.447 3.36671 272.589 2.20871 273.465 5.53641C278.077 3.76895 282.519 2.14777 286.887 0.343749C288.615 -0.363234 289.711 0.0268304 290.733 1.45299C291.56 2.59879 292.558 3.62268 293.41 4.75629C295.758 7.88896 297.255 8.29121 301.186 7.08447C303.047 6.51157 305.287 5.01227 306.37 8.31559C306.479 8.63251 307.44 8.60815 307.951 8.86412C311.748 10.8022 315.849 12.3868 316.847 17.3479C316.981 18.0427 317.918 18.7984 318.648 19.1032C322.591 20.7366 323.698 22.5284 323.089 27.2335C322.14 26.7703 321.337 26.3437 320.51 25.9902C316.737 24.369 313.05 22.4065 309.132 21.2729C304.301 19.8589 300.48 23.0647 296.537 25.1857C295.393 25.7951 294.383 26.6972 293.398 27.5626C291.341 29.3544 289.151 30.5612 288.944 34.218C288.761 37.4847 286.072 40.5565 284.709 43.811C283.176 47.4678 282.056 51.2343 282.908 55.3056C283.042 55.9272 282.933 56.9024 282.531 57.2681C278.868 60.6323 279.781 65.3131 279.038 69.4696C278.381 73.2118 278.527 77.0027 276.349 80.501C275.376 82.0612 276.227 84.682 275.875 86.7542C275.51 88.8995 274.682 90.9717 273.903 93.5558C277.006 98.0171 281.874 100.248 287.678 100.687C290.003 100.857 291.524 101.308 292.692 103.917C293.41 105.514 296.342 106.44 298.46 107.001C301.113 107.708 303.96 107.708 306.71 108.049C307.793 108.183 308.901 108.366 309.935 108.683C311.298 109.109 312.892 109.378 313.914 110.255C317.334 113.205 321.471 112.583 325.231 112.291C330.062 111.925 334.808 110.402 339.627 109.634C340.795 109.451 342.121 110.219 344.081 110.743C342.365 112.193 341.464 112.961 340.479 113.802C341.842 116.569 343.862 118.032 346.965 117.788C351.674 117.423 356.128 118.166 360.496 120.104C365.936 122.518 371.704 122.262 377.46 121.335C378.579 121.153 380.1 120.97 380.855 121.543C384.955 124.687 389.908 124.761 394.605 125.626C405.083 127.589 415.609 129.319 426.135 131.075C427.522 131.306 428.982 131.014 430.382 131.209C431.306 131.343 432.182 131.904 432.56 132.05C434.47 131.916 436.04 131.794 437.598 131.696C437.89 131.672 438.194 131.769 438.498 131.794C449.073 132.269 459.647 132.818 470.234 133.196C477.207 133.439 484.216 133.854 491.165 133.452C500.522 132.903 509.844 131.733 519.153 130.648C526.15 129.831 533.098 128.686 540.095 127.808C543.539 127.369 547.031 127.247 550.487 126.906C551.144 126.845 552.142 126.589 552.361 126.126C553.809 123.103 556.815 123.322 559.334 122.713C563.313 121.75 567.475 121.384 571.332 120.08C573.803 119.251 575.762 117.033 578.11 115.716C581.627 113.741 585.266 112.011 588.855 110.194C590.583 109.329 591.91 109.378 593.626 110.84C599.6 115.96 605.77 120.872 612.013 125.663C613.814 127.04 616.113 127.784 618.17 128.82C618.888 129.185 619.655 129.49 620.324 129.941C634.111 139.266 649.444 145.214 665.324 149.554C674.11 151.955 683.285 153.052 692.351 154.198C698.216 154.941 704.191 154.795 710.117 154.905C711.456 154.929 712.794 154.332 714.145 154.027L714.681 154.673C709.959 158.708 705.225 162.755 700.504 166.79C700.613 166.948 700.723 167.106 700.832 167.265C705.079 164.474 709.351 161.731 713.549 158.866C716.129 157.111 718.502 155.002 721.179 153.43C722.469 152.674 724.257 152.747 725.839 152.491C728.516 152.065 731.194 151.565 733.895 151.285C738.787 150.785 743.691 150.224 748.595 150.114C751.953 150.041 754.789 149.249 756.93 146.653C759.413 143.63 762.625 142.423 766.41 142.045C767.943 141.899 769.391 140.924 770.888 140.363C773.784 139.29 776.79 138.474 779.54 137.121C782.132 135.841 784.432 133.988 786.902 132.428C787.608 131.977 788.557 131.221 789.166 131.404C794.203 132.879 796.516 129.551 798.998 126.223C800.227 124.578 801.553 122.823 803.245 121.725C813.503 115.058 823.676 108.22 832.438 99.6627C839.958 92.3125 846.858 84.3285 853.989 76.5883C855.887 74.5282 857.651 72.322 860 69.5672C857.98 76.4907 856.301 82.7926 854.305 89.0092C847.235 110.926 836.733 131.05 822.703 149.31C821.352 151.077 819.88 152.747 818.431 154.442C817.628 155.38 817.604 155.246 815.462 155.173C814.83 155.149 814.16 155.965 813.527 156.404C811.532 157.794 809.597 159.269 807.54 160.561C805.946 161.572 805.18 163.937 806.457 165.351C807.711 166.741 807.236 167.594 806.141 168.642C797.148 177.236 788.338 186.024 777.751 192.729C776.108 193.765 774.685 195.142 772.689 195.983C773.577 194.155 774.466 192.326 775.354 190.486L774.879 189.742C772.884 190.9 770.766 191.912 768.905 193.253C765.643 195.605 762.504 198.128 759.401 200.688C758.792 201.188 758.16 202.2 758.233 202.894C758.464 205.137 757.259 206.381 755.543 207.173C748.692 210.33 741.805 213.414 734.881 216.425C734.151 216.742 733.043 216.632 732.289 216.315C729.393 215.096 727.056 215.974 724.756 217.802C723.539 218.765 721.982 219.277 720.655 220.118C719.159 221.069 717.382 221.885 716.372 223.238C715.131 224.884 713.817 225.774 711.845 226.298C704.483 228.273 697.206 230.516 689.856 232.539C685.415 233.758 680.924 234.745 676.446 235.806C675.789 235.964 675.095 235.915 674.171 235.976C674.353 234.636 674.499 233.587 674.743 231.844C673.161 232.246 671.773 232.429 670.532 232.953C665.847 234.94 661.223 237.086 655.918 235.684C655.467 235.562 654.81 235.501 654.506 235.733C650.697 238.658 646.219 238.621 641.777 238.682C637.457 238.743 633.138 238.695 628.818 238.695C628.708 238.378 628.599 238.049 628.477 237.732C629.256 237.122 629.998 236.476 630.801 235.915C634.44 233.38 638.139 230.93 641.717 228.309C642.605 227.663 643.14 226.53 644.089 225.298C642.8 225.091 642.045 224.969 641.181 224.823C642.641 222.885 644.004 221.069 645.623 218.911L642.301 218.911C642.009 219.618 641.583 220.325 641.425 221.093C640.828 224.067 639.246 225.579 636.046 225.554C634.853 225.554 633.478 226.201 632.48 226.944C630.789 228.187 629.414 228.785 627.443 227.273C626.931 226.883 624.887 227.761 624.121 228.59C616.333 236.951 606.476 235.33 595.901 234.916C599.917 230.711 600.294 226.456 599.041 221.91C597.532 216.4 593.699 212.853 589.147 209.733C580.191 203.589 569.933 202.236 559.553 201.054C557.29 200.798 555.136 199.542 552.933 198.762C551.643 198.311 550.353 197.641 549.027 197.555C546.204 197.373 543.356 197.458 540.521 197.519C538.051 197.568 536.14 196.849 535.495 194.191C535.288 194.216 535.069 194.167 534.984 194.264C531.954 197.482 528.803 196.812 524.775 195.788C516.962 193.789 509.138 191.619 500.729 192.399C495.436 192.887 489.972 191.375 484.581 190.827C480.018 190.364 475.442 190.047 470.879 189.571C465.355 188.999 459.83 188.438 454.317 187.694C443.694 186.28 433.558 182.721 423.105 180.576C410.206 177.918 397.27 175.481 384.408 172.665C372.86 170.129 361.433 167.033 349.885 164.522C342.925 163.011 335.83 162.084 328.772 160.975C320.729 159.708 312.661 158.562 304.617 157.306C303.559 157.136 302.074 157.014 301.575 156.307C299.409 153.235 296.269 154.356 293.519 154.247C290.003 154.1 286.449 154.637 282.92 154.478C280.779 154.381 278.673 153.515 276.544 153.016C273.258 152.248 271.396 153.662 271.031 156.94C270.946 157.708 270.107 159 269.608 159C266.359 159 265.507 161.219 265.032 163.706C263.365 172.409 261.783 181.124 260.153 189.84C258.85 196.763 256.782 203.65 256.405 210.635C256.052 216.973 252.839 222.105 251.148 227.834C250.052 231.527 247.485 235.038 244.856 237.988C235.888 248.007 224.084 251.408 211.039 251.981C205.965 252.2 201.402 250.469 196.632 249.555C193.249 248.909 190.073 247.032 186.69 246.63C179.133 245.716 174.253 240.145 168.108 236.793C160.795 232.795 153.286 229.15 145.778 225.506C137.625 221.532 129.131 218.204 121.27 213.731C114.042 209.611 106.388 207.307 98.3809 205.869C92.26 204.772 86.1391 205.308 80.0791 206.819C76.465 207.721 74.9316 209.196 74.6396 212.963C74.5788 213.828 74.3354 214.694 74.1529 215.742C73.5201 215.51 73.0212 215.486 72.8386 215.23C70.344 211.549 67.8373 213.268 65.3305 215.169C64.3692 215.9 63.274 216.534 62.4952 217.436C56.3013 224.701 48.0022 227.602 38.6931 228.614C40.7496 227.163 42.7575 225.628 44.8748 224.275C47.2477 222.751 48.5133 220.654 47.9535 217.9C47.0773 213.633 49.4259 211.61 52.7724 209.976C55.2183 208.782 57.5669 207.368 57.7251 203.406C54.3908 203.821 51.2999 204.211 48.2212 204.601C48.2456 200.676 53.4782 194.398 57.3478 193.886C60.9985 193.411 63.6147 191.388 64.2231 187.999C64.9046 184.184 67.4722 184.098 70.2101 183.477C79.6653 181.331 89.0231 183.404 97.8576 185.768C106.157 187.987 113.981 192.533 121.538 196.897C128.499 200.92 134.644 206.32 141.471 210.61C150.841 216.486 160.113 222.812 170.177 227.212C178.999 231.076 188.795 233.002 198.773 231.137C204.067 230.15 209.409 229.418 214.714 228.516C217.89 227.98 220.263 226.298 221.809 223.397C222.867 221.41 223.95 219.545 226.92 220.106C227.625 220.24 229.134 218.704 229.499 217.668C231.142 213.024 232.481 208.282 233.978 203.589C234.343 202.443 234.598 201.115 235.353 200.286C237.993 197.348 238.042 193.935 237.75 190.339C237.58 188.231 237.531 186.097 237.652 183.989C237.701 183.209 238.2 182.075 238.821 181.782C240.926 180.795 241.279 178.979 241.267 177.09C241.23 174.176 240.451 171.202 240.841 168.362C241.498 163.45 241.388 158.708 240.171 153.905C239.697 152.004 240.378 148.615 239.502 148.225C237.202 147.189 234.33 147.201 231.702 147.262C229.95 147.299 228.246 148.335 226.469 148.554C225.8 148.627 224.705 147.786 224.34 147.079C223.476 145.409 223.074 143.496 222.21 141.814C221.212 139.888 219.691 139.193 217.404 140.07C216.491 140.412 215.116 139.875 214.069 139.437C211.039 138.169 207.9 137.06 205.138 135.341C201.718 133.22 198.506 134.366 195.147 135C191.277 135.719 187.834 134.037 186.337 130.672C183.039 134.11 179.036 133.598 174.898 133.001C172.245 132.623 169.52 132.769 166.83 132.659C165.857 132.623 164.81 132.708 163.946 132.367C160.283 130.916 160.004 130.051 161.792 126.577C161.963 126.248 162.109 125.919 162.097 125.407C159.626 129.38 155.793 131.66 151.51 131.623C147.226 131.587 142.298 133.732 138.428 129.332C136.932 132.501 134.839 132.708 131.845 131.221C130.3 130.453 128.146 130.746 126.284 130.843C123.692 130.989 121.112 131.404 118.52 131.672C118.265 131.696 117.887 131.513 117.741 131.306C115.721 128.356 113.348 129.844 111.511 131.184C107.933 133.781 104.465 134.963 100.389 131.696C99.8168 133.391 99.4396 134.61 99.0015 135.804C97.018 141.265 95.0345 141.801 90.2643 137.925C87.9279 140.948 85.555 143.922 83.2795 146.994C80.9187 150.175 77.9373 152.37 74.165 153.662C70.3927 154.966 66.6812 156.453 63.0671 158.135C60.7794 159.196 58.7716 159.683 56.569 158.062C53.7945 156.014 51.093 156.587 48.4767 158.501C47.5154 159.208 46.5054 159.829 45.4345 160.536C42.1611 156.953 38.2915 155.551 33.4727 156.404C33.6431 157.733 33.8134 158.952 33.8986 159.586C29.0067 160.573 24.4434 161.828 19.8071 162.279C18.0061 162.45 16.0227 160.78 14.1243 159.951C14.1852 159.622 14.246 159.293 14.2947 158.964C16.1444 158.537 18.0061 158.123 20.4034 157.574C14.4894 156.66 9.14732 155.831 3.80523 155.015C1.70003 154.698 -0.745908 149.542 0.215425 146.909C1.07941 144.556 2.52751 142.435 3.428 140.095C4.45018 137.438 5.16812 134.671 5.99559 131.928C6.50668 130.221 6.54318 128.21 7.50451 126.808C10.0113 123.152 12.7979 119.678 15.6819 116.313C17.6289 114.046 20.1235 113.278 22.9832 114.899C23.762 115.338 24.6503 115.594 25.5021 115.899C29.5178 117.398 32.9494 115.74 34.069 111.523C34.3245 110.56 33.7525 109.195 33.1928 108.232C30.4548 103.575 31.404 100.443 36.0281 97.749C38.7052 96.1887 41.139 94.1409 43.4632 92.0809C49.1339 87.0223 55.7537 85.6205 63.1036 86.3397C69.9547 87.0101 75.82 89.8259 81.1864 93.9824C83.2308 95.5792 85.3238 97.2248 88.1226 94.8966C89.23 93.9702 90.5442 94.47 91.2013 96.1034C91.688 97.2979 92.5277 98.3462 93.2335 99.5042C95.1805 98.1634 97.0302 97.042 98.7217 95.7133C103.321 92.0931 109.162 93.3242 114.237 91.5811C117.34 90.5085 120.431 89.1189 123.497 92.0321C124.179 92.6782 125.834 92.4588 127.014 92.3613C130.859 92.0321 131.431 92.7026 130.105 96.274C129.91 96.7982 129.679 97.3223 129.935 98.0781C130.385 97.2126 131.151 96.3715 131.224 95.4695C131.456 92.7391 132.94 91.4958 135.447 90.801C138.246 90.0331 140.899 88.6922 143.71 88.0218C145.45 87.6074 147.385 87.9731 149.234 87.9975C150.597 88.0097 151.96 88.1559 153.299 88.0218C154.966 87.839 156.608 87.4246 158.263 87.1076C154.479 94.9698 150.804 102.588 147.129 110.206C147.47 110.377 147.81 110.548 148.151 110.718C149.21 108.5 150.183 106.233 151.364 104.075C153.493 100.187 155.817 96.3959 157.923 92.4953C159.687 89.2408 162.316 88.095 165.942 88.3266C167.427 88.4241 169.154 87.9487 170.42 87.1808C172.525 85.9131 174.387 85.6937 176.663 86.681C178.378 87.4246 180.313 87.6562 182.443 88.1803L182.443 88.29ZM48.5498 135.877C46.6149 136.84 44.5097 137.316 43.3172 138.62C40.8226 141.326 41.3702 143.264 44.7045 145.86C49.2069 149.383 53.0766 149.98 55.1087 147.323C56.0701 146.055 56.9949 144.629 57.3965 143.13C57.6642 142.13 57.3356 140.278 56.6298 139.851C54.1839 138.34 51.4702 137.267 48.5376 135.889L48.5498 135.877ZM35.2737 119.288C34.0203 120.58 32.3288 121.664 31.6108 123.213C30.5765 125.48 29.0675 126.138 26.792 126.528C23.7133 127.052 20.2696 127.467 19.5273 131.55C20.8902 131.964 22.2531 132.306 23.5551 132.806C28.0941 134.573 31.7325 132.196 32.1949 127.162C32.4261 124.724 33.3023 122.725 35.9551 121.969C36.454 121.835 37.1841 121.396 37.245 121.006C37.8534 117.459 38.328 113.888 38.8513 110.316C38.474 110.231 38.0846 110.146 37.7074 110.06C36.8678 113.217 36.0403 116.374 35.2737 119.288ZM122.56 113.071L121.453 112.657C120.151 116.009 118.861 119.361 117.559 122.713C117.973 122.871 118.386 123.03 118.8 123.188C120.054 119.824 121.295 116.447 122.548 113.083L122.56 113.071ZM195.78 234.258C200.453 235.928 202.631 235.574 205.101 233.161C201.669 233.563 198.725 233.916 195.78 234.258ZM16.12 137.157C18.3104 137.474 19.9653 137.706 21.6324 137.949C21.7298 137.645 21.815 137.34 21.9124 137.035C20.5616 136.34 19.223 135.633 17.7384 134.866C17.2638 135.56 16.8258 136.17 16.1322 137.169L16.12 137.157Z" fill="black"/>
</svg>