<svg width="64" height="32" viewBox="0 0 64 32" fill="none" xmlns="http://www.w3.org/2000/svg">
<path d="M35.6257 0.852711C36.483 0.30672 37.6455 0 38.8577 0C40.0699 0 41.2325 0.30672 42.0898 0.852711L62.6615 13.9585C63.5186 14.5047 64 15.2453 64 16.0176C64 16.7898 63.5186 17.5305 62.6615 18.0767L42.0898 31.1825C41.2276 31.713 40.0728 32.0065 38.8742 31.9999C37.6756 31.9933 36.529 31.687 35.6814 31.147C34.8338 30.607 34.353 29.8765 34.3426 29.1129C34.3322 28.3493 34.793 27.6136 35.6257 27.0643L48.0007 18.93H4.5715C3.35906 18.93 2.19628 18.6231 1.33896 18.077C0.481639 17.5308 0 16.79 0 16.0176C0 15.2452 0.481639 14.5044 1.33896 13.9582C2.19628 13.412 3.35906 13.1052 4.5715 13.1052H48.0007L35.6257 4.97085C34.7687 4.42469 34.2872 3.68404 34.2872 2.91178C34.2872 2.13951 34.7687 1.39887 35.6257 0.852711Z" fill="white"/>
</svg>
