<svg width="364" height="352" viewBox="0 0 364 352" fill="none" xmlns="http://www.w3.org/2000/svg">
<path d="M323.096 0.119378C327.978 -0.681882 332.92 2.61576 335.22 8.04516C336.949 8.33179 338.395 9.68705 338.688 11.4954C338.919 12.9131 338.39 14.2928 337.405 15.22C337.131 15.4778 336.823 15.6986 336.49 15.8752C336.24 19.0697 335.054 21.9161 333.237 23.9797C332.5 24.8171 331.657 25.5243 330.733 26.0745L353.889 21.675L364 46.8909L323.556 74.6282L209.806 336.87L176.944 352L58.1387 74.6282L0 46.8909L10.1113 31.761L126.389 19.1536L133.972 46.8909L96.0557 74.6282L194.639 309.133L300.806 74.6282L230.027 46.8909L240.139 21.675L264.657 25.7512L263.946 21.3772L266.493 20.9602L264.48 8.57153L267.479 8.07934L268.825 16.3694L271.216 15.9778L270.464 11.3557L272.901 10.1838L272.036 3.78832L274.436 3.45825L275.449 10.9407L275.996 14.3069L278.182 13.9504L278.834 17.9612L281.225 17.5686L280.571 13.5579L283.468 13.0832L284.272 18.0432L304.901 14.6555L305.622 19.0872L264.836 25.7805L300.806 31.761L324.489 27.26C321.929 26.8334 319.545 25.337 317.662 23.0247L317.221 22.4836L316.524 22.5969L308.854 23.8557L308.312 20.5149L315.545 19.3274L315.158 16.9504L307.925 18.1379L307.423 15.0422L314.652 13.8528L314.266 11.4758L307.033 12.6633L306.49 9.31664L314.163 8.05395L314.856 7.93774L315.103 7.28735C316.562 3.41782 319.43 0.721061 323.096 0.119378ZM324.688 17.509L325.845 24.6321L330.968 21.5852L327.521 15.8225L324.688 17.509ZM319.332 18.0608L325.227 13.7034L318.261 11.4602L319.332 18.0608ZM336.295 11.885C336.135 10.9017 335.235 10.257 334.246 10.4192C333.257 10.5813 332.609 11.4827 332.769 12.4661C332.928 13.4497 333.829 14.0942 334.818 13.9319C335.189 13.871 335.513 13.7065 335.764 13.4729C335.816 13.4243 335.867 13.3728 335.913 13.3186C336.232 12.9375 336.382 12.423 336.295 11.885ZM323.511 10.2707L326.729 10.9612L328.173 4.3977L322.354 3.1477L323.511 10.2707Z" fill="white"/>
</svg>
