<svg width="290" height="56" viewBox="0 0 290 56" fill="none" xmlns="http://www.w3.org/2000/svg">
<mask id="path-1-inside-1_118_243" fill="white">
<path d="M11.8906 8.40039L32.4805 0H59.9629L97.6045 9L104.662 0H212.667L242.52 7.7002L232 0H290V56H279.56L285.735 47.5996L268.107 56H0V55.9746L10.9023 42.9746L0 48.2451V0H8.0293L11.8906 8.40039Z"/>
</mask>
<path d="M11.8906 8.40039L32.4805 0H59.9629L97.6045 9L104.662 0H212.667L242.52 7.7002L232 0H290V56H279.56L285.735 47.5996L268.107 56H0V55.9746L10.9023 42.9746L0 48.2451V0H8.0293L11.8906 8.40039Z" fill="black" fill-opacity="0.4"/>
<path d="M11.8906 8.40039L10.0734 9.23569L10.8732 10.9756L12.6461 10.2522L11.8906 8.40039ZM32.4805 0V-2H32.0882L31.725 -1.85181L32.4805 0ZM59.9629 0L60.428 -1.94517L60.1987 -2H59.9629V0ZM97.6045 9L97.1394 10.9452L98.3868 11.2434L99.1783 10.2341L97.6045 9ZM104.662 0V-2H103.689L103.088 -1.23415L104.662 0ZM212.667 0L213.167 -1.93661L212.921 -2H212.667V0ZM242.52 7.7002L242.02 9.63681L243.701 6.08635L242.52 7.7002ZM232 0V-2H225.882L230.819 1.61384L232 0ZM290 0H292V-2H290V0ZM290 56V58H292V56H290ZM279.56 56L277.948 54.8153L275.607 58H279.56V56ZM285.735 47.5996L287.347 48.7843L284.875 45.7941L285.735 47.5996ZM268.107 56V58H268.56L268.968 57.8055L268.107 56ZM0 56H-2V58H0V56ZM0 55.9746L-1.53243 54.6894L-2 55.247V55.9746H0ZM10.9023 42.9746L12.4348 44.2598L10.0319 41.174L10.9023 42.9746ZM0 48.2451H-2V51.4334L0.870477 50.0457L0 48.2451ZM0 0V-2H-2V0H0ZM8.0293 0L9.84651 -0.835302L9.31115 -2H8.0293V0ZM11.8906 8.40039L12.6461 10.2522L33.236 1.85181L32.4805 0L31.725 -1.85181L11.1351 6.54858L11.8906 8.40039ZM32.4805 0V2H59.9629V0V-2H32.4805V0ZM59.9629 0L59.4978 1.94517L97.1394 10.9452L97.6045 9L98.0696 7.05483L60.428 -1.94517L59.9629 0ZM97.6045 9L99.1783 10.2341L106.236 1.23415L104.662 0L103.088 -1.23415L96.0307 7.76585L97.6045 9ZM104.662 0V2H212.667V0V-2H104.662V0ZM212.667 0L212.167 1.93661L242.02 9.63681L242.52 7.7002L243.019 5.76358L213.167 -1.93661L212.667 0ZM242.52 7.7002L243.701 6.08635L233.181 -1.61384L232 0L230.819 1.61384L241.338 9.31404L242.52 7.7002ZM232 0V2H290V0V-2H232V0ZM290 0H288V56H290H292V0H290ZM290 56V54H279.56V56V58H290V56ZM279.56 56L281.171 57.1847L287.347 48.7843L285.735 47.5996L284.124 46.415L277.948 54.8153L279.56 56ZM285.735 47.5996L284.875 45.7941L267.247 54.1945L268.107 56L268.968 57.8055L286.596 49.4051L285.735 47.5996ZM268.107 56V54H0V56V58H268.107V56ZM0 56H2V55.9746H0H-2V56H0ZM0 55.9746L1.53243 57.2598L12.4348 44.2598L10.9023 42.9746L9.36991 41.6894L-1.53243 54.6894L0 55.9746ZM10.9023 42.9746L10.0319 41.174L-0.870477 46.4445L0 48.2451L0.870477 50.0457L11.7728 44.7752L10.9023 42.9746ZM0 48.2451H2V0H0H-2V48.2451H0ZM0 0V2H8.0293V0V-2H0V0ZM8.0293 0L6.21208 0.835302L10.0734 9.23569L11.8906 8.40039L13.7078 7.56509L9.84651 -0.835302L8.0293 0Z" fill="white" fill-opacity="0.8" mask="url(#path-1-inside-1_118_243)"/>
</svg>
