<svg width="160" height="456" viewBox="0 0 160 456" fill="none" xmlns="http://www.w3.org/2000/svg">
<g opacity="0.9">
<path d="M48.5635 204.007C48.6371 202.832 48.6984 201.455 48.8211 200.087C49.0418 197.627 49.3055 195.176 49.5447 192.717C49.3914 192.678 49.2381 192.639 49.0848 192.601L48.5329 195.516C48.4348 195.516 48.3305 195.524 48.2324 195.532C48.1404 193.853 48.1282 192.168 47.9381 190.513C47.3371 185.393 48.1588 180.799 50.5748 176.531C52.1691 173.716 53.1564 170.522 52.2795 166.864H51.2248C51.3107 167.544 51.3904 168.179 51.4946 168.983C51.2493 168.867 50.9489 168.735 50.4583 168.511C50.0475 169.756 49.6244 171.032 49.2013 172.301C49.1522 172.285 49.1031 172.27 49.048 172.254C49.1522 171.682 49.2565 171.102 49.4343 170.12C48.1098 172.293 46.4787 173.77 46.8711 176.778C45.9636 175.703 45.3994 174.613 46.1659 173.731C47.2145 172.533 46.7975 170.785 47.515 169.462C47.6683 169.71 47.7848 169.903 47.9565 170.174C48.539 168.225 47.9013 165.82 49.5998 164.296H48.9131C49.0909 163.848 49.2871 163.33 49.4895 162.819C49.3791 162.75 49.2626 162.68 49.1522 162.611C49.0848 162.827 49.0173 163.051 48.9499 163.268C48.8701 163.252 48.7843 163.245 48.7046 163.229C48.772 162.27 48.8456 161.304 48.9131 160.345C49.0173 160.345 49.1154 160.345 49.2197 160.345C49.281 160.909 49.3423 161.466 49.3975 162.031L49.7286 161.938C49.2626 159.927 48.7966 157.916 48.3305 155.906C48.2569 155.89 48.1895 155.875 48.1159 155.867C48.0607 156.509 48.0117 157.151 47.9565 157.769C46.3254 156.625 46.9631 154.723 46.9447 153.037C46.9324 151.861 46.9447 150.678 46.7975 149.464C46.7178 149.734 46.6381 149.997 46.5277 150.369C46.3254 149.928 46.1537 149.549 45.9084 149.031C45.007 150.74 44.2528 152.41 43.3146 153.887C42.5603 155.078 41.7386 156.184 40.1995 155.906C39.8377 155.844 38.4151 155.627 38.1698 157.522C38.0043 158.806 36.6368 159.78 36.2321 161.103C35.6557 162.982 35.2755 165.031 35.1652 167.034C34.9873 170.383 35.0793 173.754 35.0793 177.118C35.0793 177.814 35.2204 178.51 35.2571 179.206C35.2755 179.585 35.2142 179.964 34.9076 180.359C34.8708 179.902 34.834 179.438 34.8218 179.284C34.1289 181.782 33.3808 184.488 32.6265 187.195C32.51 187.164 32.3935 187.133 32.277 187.102C32.3506 186.19 32.9086 185.331 32.0869 184.372C31.7558 183.986 32.0133 182.393 32.3629 181.581C33.6444 178.565 33.0496 175.726 32.3629 172.695C31.9275 170.785 32.1237 168.65 32.0379 166.586C31.9459 166.616 31.768 166.678 31.535 166.756C31.6638 166.431 31.768 166.176 31.8784 165.92C31.7864 165.866 31.6945 165.804 31.6025 165.75C31.3695 166.4 31.1303 167.042 30.8299 167.885V166.408C30.7685 166.392 30.7072 166.377 30.6459 166.361C30.4742 167.173 30.3025 167.993 30.1247 168.805C30.045 168.82 29.9591 168.844 29.8794 168.859C29.8119 168.047 29.5912 167.196 29.7077 166.431C30.094 163.84 29.9591 161.126 31.2223 158.728C31.9888 157.275 32.2095 155.372 32.8902 153.818C33.4605 152.511 34.2454 151.297 35.11 150.268C35.5208 149.773 36.3486 149.881 36.9557 149.595C39.8071 148.219 41.5118 145.705 42.0514 141.815C42.266 140.261 42.8179 138.699 43.4863 137.353C44.0872 136.155 44.0013 135.01 43.9952 133.765C43.9952 133.023 44.2344 132.265 44.2098 131.53C44.1976 131.205 43.7929 130.904 43.5905 130.617C41.6037 132.984 38.458 134.43 37.9307 138.83C37.8939 138.018 37.6731 137.129 37.851 136.402C38.4764 133.866 38.6788 131.105 40.8066 129.442C42.3212 128.259 42.6339 126.024 42.7504 124.121C43.3207 123.835 43.8051 123.588 44.2895 123.34C44.2466 123.201 44.2037 123.07 44.1608 122.931C43.9829 123.016 43.8112 123.101 43.5476 123.232C43.94 121.562 44.3202 119.969 44.6943 118.368C44.6452 118.314 44.5961 118.26 44.5471 118.213C44.0136 119.35 43.4863 120.487 42.916 121.693C42.916 121.283 42.965 120.935 42.8976 120.626C42.8547 120.448 42.5481 120.363 42.499 120.185C42.3641 119.667 42.2966 119.11 42.1985 118.577C41.6405 118.801 41.0028 118.87 40.549 119.273C39.5863 120.131 38.7217 121.167 37.8203 122.134C37.7345 122.049 37.6486 121.964 37.5628 121.879C37.6609 121.276 37.759 120.672 37.851 120.069C37.7896 120.015 37.7283 119.969 37.667 119.914C37.109 120.773 36.551 121.624 35.9378 122.567C35.8887 122.312 35.8397 122.072 35.7661 121.709C35.3246 122.374 34.9199 122.985 34.509 123.588C34.4477 123.557 34.3864 123.526 34.319 123.495C34.3925 123.054 34.4661 122.613 34.601 121.778C33.5218 124.415 32.5897 126.689 31.6945 128.862C31.7067 128.893 31.6515 128.715 31.535 128.313C31.21 129.504 30.5049 130.733 30.7379 131.515C31.1119 132.767 30.8666 133.78 30.5784 134.763C30.2841 135.768 29.7016 136.688 29.119 137.508C28.2054 138.792 27.1875 139.952 26.3964 140.934C26.9851 138.544 27.8681 135.876 28.2544 133.1C28.6469 130.3 28.5365 127.393 28.653 124.369C28.4506 124.864 28.2176 125.251 28.1379 125.684C27.911 126.905 28.1134 128.475 26.5681 128.444C26.3045 126.472 25.4031 124.678 25.8384 122.343C26.2431 120.193 25.9243 117.826 25.7771 115.46C25.5931 116.21 25.403 116.953 25.2191 117.703C25.1639 117.672 25.1026 117.641 25.0474 117.61V110.078C25.5502 110.441 25.7894 110.619 25.7771 110.611C26.3719 108.871 26.979 107.093 27.586 105.306C27.4879 105.244 27.3898 105.182 27.2856 105.121C27.12 105.368 26.9544 105.615 26.795 105.863C26.7153 105.832 26.6356 105.793 26.562 105.762C26.7521 104.463 26.9422 103.172 27.1384 101.872C27.0464 101.795 26.9606 101.726 26.8686 101.648C26.1328 102.777 25.3969 103.906 24.6611 105.035L24.3974 104.788C25.2988 103.025 26.2002 101.269 27.1139 99.4906C25.0719 100.326 23.3672 101.826 21.9017 103.976C22.0427 103.504 22.1838 103.04 22.3248 102.568C22.2696 102.468 22.2206 102.36 22.1654 102.259C21.6074 102.762 20.939 103.148 20.5097 103.798C18.7866 106.412 17.3886 109.165 16.8244 112.676C16.5301 114.509 15.8923 116.295 15.8985 118.236C15.8985 119.273 16.0089 120.301 16.0947 121.337C16.389 124.949 15.6409 128.127 13.3844 130.471C11.8759 132.033 10.1589 133.262 8.59529 134.755C6.76183 136.51 5.9892 139.024 5.69486 141.815C5.67034 142.071 5.62128 142.511 5.53544 142.535C3.92886 142.914 3.62839 144.692 3.32792 146.177C2.71472 149.216 2.75765 152.286 3.49962 155.364C4.14961 158.079 3.83075 160.708 2.45105 163.044C2.35294 163.214 2.30388 163.438 2.25482 163.647C2.2119 163.848 2.19964 164.064 2.16898 164.289C4.0147 163.964 6.33259 160.963 6.40618 158.783C6.52268 155.148 7.43635 151.815 8.67501 148.582C9.04293 147.623 9.53349 147.09 10.3981 147.005C11.4528 146.904 12.5566 146.896 13.5377 146.471C14.5617 146.022 15.4631 145.118 16.4136 144.406C16.8428 144.089 17.2659 143.749 17.8239 143.323C18.3881 146.463 17.2414 148.621 15.9659 150.693C14.7273 152.704 13.0471 154.336 12.5811 156.988C12.2438 158.891 12.0783 160.855 11.6858 162.734C11.2934 164.598 10.674 166.377 10.2325 168.233C9.97499 169.331 9.88301 170.491 9.69292 171.612C9.42311 173.19 8.69954 174.087 7.51606 174.938C4.85478 176.855 2.88029 179.593 1.88691 183.498C1.11428 186.538 1.57418 189.445 1.80106 192.376C2.04021 195.431 1.77653 198.223 0.409101 200.798C0.243538 201.115 -0.0385354 201.502 0.00438842 201.796C0.0534443 202.136 0.464286 202.724 0.593058 202.677C2.3836 202.02 3.76943 200.736 4.78733 198.664C6.11184 195.972 7.08069 193.173 7.17267 189.987C7.22786 188.115 8.12313 186.886 9.06133 185.702C9.87688 184.666 10.8335 183.808 11.6674 182.795C13.1881 180.939 13.973 178.626 14.3042 175.997C14.666 173.159 16.1192 171.349 18.1796 170.359C19.7371 169.609 21.9078 172.239 21.6135 174.303C21.497 175.115 21.6441 175.989 21.6687 176.832C21.7116 178.572 22.0427 180.397 21.7361 182.037C21.08 185.556 20.1541 189.005 17.6706 191.325C17.2414 191.727 16.9716 192.407 16.6711 192.995C16.3032 193.722 16.015 194.403 15.132 194.41C14.6537 194.41 14.0957 194.952 13.7155 195.431C11.2504 198.524 9.88301 202.267 9.58254 206.652C9.42311 208.995 9.13491 211.323 9.02453 213.666C8.88963 216.497 8.68114 219.35 8.8835 222.158C9.0184 224.091 9.71131 225.986 10.2938 227.834C11.1094 230.425 11.9801 233.008 12.9735 235.498C13.9301 237.887 15.1013 240.146 16.1438 242.481C17.3456 245.157 16.7938 248.08 16.8735 250.918C16.9348 253.153 15.9659 254.87 15.2669 256.765C14.5004 258.829 14.0344 261.072 13.3598 263.516C14.016 263.098 14.6782 262.797 15.2424 262.302C18.989 259.054 21.4908 254.568 23.1833 249.325C24.0847 246.526 23.8517 243.626 23.496 240.702C23.2139 238.359 23.2691 235.962 23.0422 233.603C22.8767 231.909 22.5333 230.247 22.2022 228.592C21.8772 226.968 21.4234 225.429 22.0182 223.689C22.4474 222.436 22.4413 220.944 22.8583 219.675C23.3304 218.229 23.8946 216.752 24.704 215.6C25.5931 214.331 26.3412 212.777 28.1195 212.731C28.9105 212.707 29.677 211.192 30.4435 210.341C31.2162 209.483 32.0869 208.725 32.7124 207.719C33.5647 206.366 34.2208 204.812 34.9751 203.358C35.2755 202.77 35.6251 202.221 36.1218 201.363C36.4161 202.7 36.6368 203.698 36.8698 204.742C37.0109 204.68 37.2746 204.564 37.6977 204.386C37.7406 207.982 37.5873 211.223 35.5821 214.2C34.1963 216.257 33.3869 218.979 32.4978 221.5C31.5718 224.13 31.8416 226.829 32.3077 229.636C32.602 231.407 33.3256 232.868 33.6751 234.485C34.2515 237.137 34.552 239.991 34.4845 242.744C34.4171 245.366 33.7303 247.964 33.2397 251.057C34.276 249.441 35.2755 248.165 35.9869 246.68C36.7104 245.165 37.0416 243.347 37.7406 241.808C38.8444 239.372 38.55 236.805 38.409 234.253C38.2128 230.734 39.4146 228.027 41.4075 225.8C41.8552 225.297 42.5603 225.143 43.1613 224.872C43.7561 224.601 44.3693 224.393 44.915 224.176C45.0928 225.297 45.3749 226.628 45.4975 227.989C45.5711 228.77 45.5466 229.667 45.3136 230.378C44.4306 233.085 44.7617 235.637 45.4792 238.313C46.7791 243.146 46.4051 247.655 43.5353 251.606C42.2353 253.393 41.0151 255.311 40.0094 257.36C39.433 258.543 39.1693 260.105 39.0958 261.528C38.9302 264.668 38.8505 267.839 38.9609 270.979C39.0406 273.144 39.6476 275.131 40.5 277.158C41.757 280.158 43.8419 282.687 44.1362 286.283C44.3141 288.441 44.0627 290.505 43.2226 292.439C42.8915 293.204 42.4929 293.993 42.3641 294.828C42.2353 295.671 42.4132 296.584 42.4622 297.597C43.3023 296.081 43.9523 294.898 44.6145 293.715C45.4362 292.253 46.4787 290.908 47.0428 289.307C47.5518 287.861 47.7848 286.113 47.7357 284.512C47.6192 280.769 47.2329 277.049 47.0121 273.314C46.865 270.808 49.6734 267.622 51.6541 268.017C52.7394 268.233 53.3465 269.161 53.7818 270.383C54.9592 273.701 54.0455 276.933 53.5918 280.189C53.4139 281.488 53.1932 282.772 52.9847 284.063C53.0889 284.118 53.1932 284.172 53.3036 284.226C53.4569 284.079 53.604 283.924 53.7635 283.801C54.2356 283.422 54.7078 283.058 55.1861 282.687C55.4007 283.499 55.7134 284.295 55.8054 285.123C55.9158 286.121 55.8545 287.149 55.8545 288.17C55.8545 288.827 55.9403 289.539 55.7747 290.142C54.1927 295.981 52.6229 301.843 49.3362 306.63C48.8272 307.372 48.3612 307.991 47.564 308.439C45.6018 309.553 44.0995 311.633 43.4127 314.115C42.5603 317.178 41.8 320.48 41.8061 323.674C41.8122 326.976 42.7075 330.309 43.3759 333.573C43.9339 336.287 44.9211 338.87 45.3381 341.608C45.6325 343.518 45.4608 345.614 45.1787 347.562C44.915 349.372 44.2589 351.089 43.7193 352.821C43.5905 353.239 43.29 353.757 42.9834 353.873C40.9415 354.631 40.5674 356.835 40.1443 358.969C39.7458 360.972 39.2184 363.006 39.1509 365.04C38.9792 370.415 40.2547 375 43.4433 378.983C45.7612 381.875 48.122 385.1 48.3857 389.709C48.4532 390.931 48.864 392.122 49.4527 393.476C49.6489 392.857 49.9862 392.261 50.023 391.627C50.3479 386.616 49.4404 381.976 47.6437 377.475C46.1414 373.724 45.9084 368.504 48.8456 364.638C50.3112 362.704 52.1017 361.127 53.4262 359.07C55.4804 355.876 56.9337 352.311 56.7865 347.926C56.6945 345.204 57.0931 342.992 58.994 342.211C60.0365 341.786 60.8459 341.994 61.5695 343.046C63.2128 345.42 63.4581 348.235 63.0595 351.143C62.7407 353.447 62.1459 355.69 61.7473 357.979C61.5633 359.039 61.6001 360.16 61.4346 361.235C61.1034 363.393 60.4718 365.512 60.3799 367.677C60.1959 372.039 61.2016 376.145 62.661 380.074C63.5256 382.401 64.335 384.768 65.2119 387.242C65.5859 386.833 65.7515 386.655 65.9906 386.392C67.1005 391.063 69.5962 394.342 72.3066 397.358C74.7532 400.08 75.6485 403.421 75.9428 407.473C76.2126 411.2 75.7711 414.611 74.6061 417.859C73.0853 422.105 72.2391 426.528 72.1165 431.106C72.049 433.558 72.2207 436.288 73.0301 438.445C75.0414 443.812 77.482 448.932 79.7692 454.136C80.0083 454.678 80.3885 455.118 80.9649 456C81.0446 455.041 81.155 454.577 81.1121 454.144C80.8668 451.917 80.5541 449.697 80.3149 447.462C80.1923 446.287 80.1678 445.088 80.1064 443.905C80.0635 443.047 80.2781 441.987 79.9593 441.361C78.7145 438.909 79.4074 436.605 80.0635 434.277C80.5295 432.614 81.2409 431.23 82.3937 430.062C83.2889 429.157 83.8715 427.704 84.4663 426.404C85.5455 424.038 86.5389 421.617 87.5384 419.197C87.8143 418.524 88.1332 417.805 88.1823 417.078C88.403 413.861 89.6846 411.154 90.7209 408.331C91.843 405.269 92.3091 402.098 92.0515 398.765C91.8553 396.205 91.3648 393.808 90.4143 391.434C89.5987 389.392 89.378 386.925 89.0653 384.613C88.7955 382.641 88.6912 380.623 88.6544 378.62C88.5931 375.302 89.6539 372.495 91.5548 370.299C92.0515 369.726 93.1246 369.487 93.7746 369.742C94.2407 369.927 94.676 371.165 94.719 371.969C94.8048 373.492 94.4185 375.062 94.5595 376.57C94.6944 378.016 95.2831 379.385 95.6081 380.816C95.8288 381.79 96.0189 382.811 96.0619 383.817C96.1538 385.959 97.0123 387.49 98.4717 389.183C97.6132 384.59 98.1958 380.483 98.7599 376.4C98.8703 375.619 99.416 374.9 99.8391 374.227C102.623 369.749 102.917 364.885 101.213 359.758C100.606 357.925 100.759 356.332 101.777 354.87C102.58 353.718 103.917 353.718 104.542 354.994C106.633 359.24 108.504 363.625 108.166 368.86C108.087 370.113 107.602 371.335 107.265 372.549C107.124 373.059 106.854 373.508 106.701 374.018C105.94 376.555 105.07 379.053 104.493 381.659C103.886 384.373 104.242 387.119 105.29 389.601C106.554 392.586 107.933 395.486 109.307 398.394C109.546 398.897 110 399.245 110.306 399.608C109.945 397.404 109.638 395.231 109.215 393.104C108.982 391.929 108.424 390.854 108.203 389.678C107.29 384.799 108.271 380.63 111.49 377.576C113.458 375.704 114.58 373.144 115.476 370.422C117.45 364.375 118.094 358.057 117.285 351.591C117.058 349.759 116.426 347.965 115.801 346.263C114.954 343.974 113.802 341.863 113.035 339.535C112.447 337.749 112.207 335.777 111.895 333.859C111.441 331.075 110.472 328.662 108.951 326.574C106.903 323.751 105.548 320.542 105.254 316.637C105.131 314.997 104.677 313.404 104.401 311.78C103.948 309.166 103.249 306.552 104.187 303.884C104.371 303.366 104.671 302.917 105.076 302.129C106.554 305.168 107.89 307.913 109.35 310.914C109.282 309.908 109.331 309.089 109.154 308.362C108.767 306.746 108.816 305.268 109.141 303.583C109.804 300.103 108.835 296.955 107.216 294.109C106.989 293.707 106.603 293.351 106.548 292.91C106.431 292.06 106.492 291.17 106.474 290.297C107.253 290.583 108.068 290.768 108.792 291.201C109.123 291.402 109.368 292.037 109.503 292.539C110.509 296.367 112.894 299.074 114.464 302.407C116.549 306.846 117.947 311.563 116.904 317.116C116.457 319.521 117.297 322.328 117.585 324.942C117.886 327.641 119.394 329.513 120.541 331.632C121.056 332.575 121.546 333.534 122.362 334.447C122.178 333.403 121.969 332.366 121.822 331.322C121.467 328.755 120.737 326.133 120.909 323.62C121.093 320.905 122.294 318.407 123.68 316.165C125.471 313.257 126.544 309.963 126.924 306.274C127.39 301.711 126.642 297.581 125.005 293.452C124.054 291.062 123.901 288.139 123.509 285.432C123.423 284.845 123.711 283.785 124.073 283.545C125.765 282.447 125.36 280.56 125.232 278.898C124.913 274.706 123.392 271.102 121.418 267.792C121.086 267.243 120.553 266.803 120.038 266.532C117.53 265.194 116.169 262.727 115.341 259.556C115.065 258.497 114.507 257.298 113.796 256.726C112.189 255.434 111.441 253.609 110.815 251.467C109.35 246.456 108.246 241.313 107.431 236.093C106.995 233.294 107.829 230.68 109.013 228.36C109.656 227.099 110.135 225.576 111.533 225.035C112.63 224.617 113.949 225.027 114.452 226.38C115.421 228.994 115.463 231.677 115.261 234.539C114.869 240.006 115.617 245.234 118.505 249.65C119.952 251.862 121.411 254.066 122.877 256.301C124.14 255.21 123.539 254.282 123.208 253.401C122.527 251.591 121.767 249.82 121.154 247.979C120.835 247.013 120.682 245.93 120.584 244.878C120.51 244.09 120.314 243.169 121.338 242.845C121.687 242.729 121.884 241.855 122.264 241.089C122.527 241.553 122.803 241.878 122.914 242.272C123.926 245.876 125.25 249.186 127.924 251.313C128.218 251.545 128.482 251.978 128.788 252.032C131.658 252.504 132.026 255.535 132.817 258.157C133.093 259.069 133.271 260.214 133.81 260.778C135.018 262.054 134.89 263.531 134.791 265.202C134.718 266.501 135.018 267.823 135.012 269.138C134.994 272.17 134.571 275.039 133.332 277.768C132.633 279.315 132.455 281.272 132.173 283.074C131.903 284.821 131.744 286.608 131.64 288.386C131.419 292.029 132.081 295.463 133.387 298.703C134.031 300.304 134.663 301.92 135.337 303.497C135.533 303.946 135.871 304.302 136.423 304.565C136.19 302.933 136.098 301.247 135.699 299.685C134.595 295.354 134.718 290.962 136.263 287.064C137.594 283.715 139.844 280.955 141.586 277.846C142.493 276.222 143.364 274.497 143.934 272.657C145.4 267.893 145.253 262.843 145.351 257.832C145.43 253.532 144.486 249.487 143.382 245.582C142.456 242.303 141.028 239.218 138.722 236.936C136.95 235.181 136.042 232.691 135.815 229.845C135.797 229.628 135.785 229.396 135.705 229.211C134.037 225.12 133.872 220.843 134.699 216.435C134.871 215.515 134.951 214.571 135.129 213.226C135.576 214.045 135.803 214.471 136.085 214.997C137.122 213.69 136.981 212.011 137.14 210.465C137.612 205.709 136.257 201.618 134.24 197.736C133.682 196.661 133.252 195.408 133.001 194.163C132.7 192.686 133.418 191.193 135.221 191.626C137.109 192.075 138.035 194.078 139.249 195.609C141.672 198.648 141.941 202.762 142.714 206.652C143.474 210.473 143.1 214.192 142.794 218.013C142.61 220.278 143.143 222.66 143.505 224.949C143.683 226.094 144.204 227.146 144.572 228.244C144.695 228.205 144.817 228.159 144.934 228.12C144.964 227.935 145.038 227.733 145.026 227.556C144.59 222.792 146.289 218.763 148.036 214.896C149.631 211.354 150.919 207.719 150.716 203.69C150.526 199.893 151.225 196.073 150.109 192.276C148.772 187.705 147.503 183.143 144.774 179.554C143.407 177.76 141.794 176.252 140.494 174.396C139.715 173.29 139.078 171.821 138.814 170.39C138.464 168.472 138.55 166.431 138.446 164.436C138.366 162.866 138.146 161.273 138.244 159.718C138.305 158.798 138.691 157.568 139.249 157.143C139.691 156.803 140.746 157.259 141.31 157.754C143.051 159.277 144.351 161.219 144.59 164.072C144.67 165.016 145.142 165.905 145.43 166.825C145.296 166.949 145.167 167.065 145.032 167.189C144.897 166.794 144.762 166.408 144.584 165.897C144.425 166.299 144.345 166.408 144.363 166.47C145.099 168.728 145.804 171.001 146.602 173.228C147.429 175.556 148.938 176.848 150.796 177.838C151.759 178.348 152.409 179.794 153.187 180.83C154.996 183.228 154.929 186.236 154.849 189.213C154.733 193.807 156.848 198.733 160 199.754C159.393 197.04 158.835 194.178 158.105 191.379C157.676 189.716 158.111 188.301 158.639 186.963C160.38 182.54 159.896 178.178 158.62 173.793C158.4 173.027 158.105 172.285 157.976 171.496C157.621 169.308 156.437 167.862 155.272 166.361C153.537 164.126 152.531 161.528 152.427 158.295C152.36 156.161 151.851 154.05 151.575 151.915C151.397 150.577 151.286 149.232 151.133 147.894C150.483 142.341 148.588 137.825 144.578 134.94C143.499 134.159 142.463 133.17 141.616 132.025C141.107 131.337 140.856 130.2 140.752 129.218C140.586 127.648 140.47 126.008 140.641 124.462C140.807 122.985 141.377 121.585 141.788 120.1C143.162 120.479 143.603 122.003 144.192 123.279C145.001 125.026 145.958 126.38 147.797 126.295C147.301 123.294 146.859 120.355 146.301 117.44C146.179 116.806 145.633 116.311 145.32 115.723C145.02 115.158 144.566 114.571 144.523 113.952C144.271 110.364 142.726 107.812 140.592 105.662C140.194 105.26 139.801 104.765 139.544 104.208C138.471 101.896 137.066 100.334 134.804 100.364C134.601 100.364 134.399 100.009 134.197 99.8154C133.59 99.2354 132.976 98.6554 132.228 98.2765C132.799 99.2664 133.375 100.256 133.945 101.246C133.866 101.378 133.786 101.509 133.706 101.641C133.166 101.215 132.627 100.782 131.854 100.179C131.885 100.728 131.787 101.378 131.977 101.826C132.835 103.875 133.798 105.847 134.663 107.889C134.816 108.253 134.804 109.111 134.62 109.266C133.577 110.109 133.976 111.392 134.007 112.444C134.049 113.836 134.399 115.213 134.577 116.605C134.595 116.759 134.325 116.976 134.086 117.293C134.215 118.012 134.393 119.025 134.577 120.038C134.466 120.077 134.356 120.116 134.246 120.147C134.086 119.536 133.927 118.925 133.645 117.819C133.258 118.669 132.933 119.327 132.651 120.015C132.198 121.121 131.713 122.211 131.37 123.364C131.204 123.92 131.333 124.616 131.327 125.251C131.327 125.977 131.327 126.697 131.327 127.424C131.198 127.4 131.063 127.385 130.934 127.362C131.045 126.952 131.161 126.542 131.216 126.325C130.793 125.452 130.425 124.694 130.131 124.083C129.775 125.745 130.15 126.472 131.511 129.303C132.057 130.447 131.756 132.234 131.83 133.734C131.83 133.835 131.621 133.958 131.627 134.067C131.658 135.033 131.523 136.093 131.799 136.936C132.333 138.575 133.093 140.091 133.761 141.653C133.872 141.916 134.007 142.163 134.062 142.272C133.369 142.024 132.608 141.901 131.983 141.467C131.529 141.15 131.063 140.493 130.922 139.874C130.413 137.608 130.008 135.312 129.622 133.007C129.273 130.935 128.2 129.79 126.863 128.622C125.882 127.764 124.416 127.215 124.183 125.281C124.165 125.142 124.073 124.949 123.981 124.903C122.209 124.067 122.178 121.747 121.356 120.123C121.068 120.409 120.749 120.734 120.351 121.144C120.461 121.268 120.663 121.492 121.001 121.871C120.774 122.003 120.504 122.165 120.062 122.42C120.602 122.644 120.823 122.745 121.117 122.861C120.657 123.364 120.259 123.804 119.983 124.106C119.946 125.104 119.94 126.078 119.872 127.037C119.639 130.362 120.719 133.077 122.356 135.497C124.404 138.521 125.673 141.955 125.434 145.953C125.244 149.154 126.838 150.987 128.334 152.89C129.837 154.792 130.235 157.197 130.757 159.618C129.978 157.043 128.095 155.999 126.464 154.637C124.723 153.184 123.392 151.498 123.104 148.706C122.791 145.651 122.172 142.674 120.743 140.083C120.547 139.735 120.259 139.457 120.007 139.163C119.13 138.142 118.247 137.129 117.26 135.992C117.297 135.946 117.144 136.124 117.003 136.294C114.881 135.234 115.451 132.373 114.672 130.378C114.139 129.009 114.121 127.331 113.648 125.916C113.36 125.049 112.655 124.4 112.14 123.657C112.03 123.75 111.913 123.843 111.803 123.936C111.907 124.725 112.011 125.513 112.122 126.302C112.042 126.333 111.962 126.364 111.882 126.403C111.416 124.91 110.95 123.425 110.441 121.801C110.411 121.801 110.153 121.856 109.828 121.925C109.981 121.655 110.08 121.469 110.178 121.299C109.491 120.757 108.804 120.224 108.148 119.713C108.173 120.348 108.197 120.943 108.215 121.554C107.51 120.92 106.922 120.394 106.333 119.86C106.29 119.945 106.241 120.03 106.198 120.108C107.136 122.296 108.252 124.4 108.957 126.704C109.626 128.893 109.669 131.391 110.349 133.572C111.128 136.054 112.287 138.343 113.342 140.679C113.483 140.996 113.986 141.027 114.292 141.251C114.47 141.382 114.599 141.63 114.752 141.823C114.599 141.955 114.452 142.086 114.213 142.287C116.003 143.757 116.702 146.185 117.254 148.574C117.653 150.299 117.579 152.225 117.616 154.065C117.689 157.971 118.413 161.567 120.387 164.675C121.528 166.47 122.527 168.411 123.662 170.212C124.471 171.496 125.36 172.95 126.047 174.474C127.317 177.281 126.483 180.227 126.434 183.104C126.403 185.099 126.096 187.094 126.115 189.09C126.127 190.157 126.562 191.216 126.851 192.438C126.765 192.407 126.427 192.431 126.323 192.245C124.98 189.855 125.226 187.21 125.587 184.326C125.342 184.782 125.164 185.115 124.815 185.757C124.71 184.697 124.631 183.932 124.533 182.934C124.845 183.205 125.029 183.359 125.232 183.529C125.146 182.377 125.054 181.225 124.943 179.748C124.698 180.931 124.514 181.813 124.33 182.686L123.907 182.601C123.95 181.434 124.097 180.258 124.005 179.106C123.889 177.582 123.582 176.229 122.699 174.899C121.522 173.12 120.197 171.72 118.769 170.321C117.984 169.547 117.646 167.985 117.229 166.709C116.892 165.681 116.745 164.559 116.512 163.477C116.396 163.477 116.285 163.484 116.169 163.492C116.015 165.843 115.856 168.194 115.696 170.584C115.476 170.305 115.261 170.042 115.046 169.779C113.146 165.975 112.661 161.497 112.618 156.888L112.134 156.865C111.662 157.986 111.067 159.045 110.76 160.236C110.478 161.327 110.343 162.371 109.264 162.634C109.135 162.665 109.031 163.198 109.013 163.508C108.896 165.673 108.62 167.862 108.78 169.996C108.896 171.558 109.466 173.128 110.055 174.551C111.263 177.49 112.023 180.459 112.244 183.854C112.502 187.868 112.22 192.152 114.01 195.802C114.519 196.839 115.476 197.542 116.254 198.362C116.659 198.787 117.119 199.128 117.554 199.507C117.444 199.638 117.34 199.77 117.229 199.909C117.033 199.971 116.837 200.025 116.604 200.094C118.677 203.822 120.921 207.364 121.749 211.857C121.982 213.141 121.92 214.525 121.939 215.863C121.969 217.719 121.945 219.575 121.945 221.601C121.025 218.538 120.118 215.569 119.235 212.591C118.738 210.921 117.996 209.251 117.898 207.534C117.794 205.6 116.862 204.866 115.893 203.891C114.746 202.731 113.685 201.424 112.63 200.226C112.134 201.223 112.569 204.997 113.575 206.66C111.956 206.064 110.196 203.93 110.349 201.989C110.607 198.764 109.172 195.911 109.405 192.748C109.479 191.688 109.454 190.598 109.331 189.554C109.233 188.719 108.89 187.937 108.712 187.11C108.632 186.739 108.724 186.313 108.657 185.934C108.504 185.115 108.418 184.233 108.093 183.522C107.277 181.728 106.345 180.026 105.407 178.186C105.376 178.827 105.34 179.423 105.297 180.343C105.119 179.802 105.033 179.539 104.947 179.276C103.347 179.694 104.757 181.318 104.193 182.145C103.304 181.874 102.691 182.555 102.586 183.97C102.549 183.97 102.476 183.97 102.47 183.947C102.415 183.761 102.366 183.56 102.261 183.15C102.126 184.017 102.016 184.689 101.857 185.726C101.421 183.831 101.127 182.331 100.71 180.892C100.587 180.475 100.115 180.227 99.8269 179.871C98.7109 178.479 97.6071 177.08 96.6076 175.827C96.8713 178.178 97.1595 180.738 97.4416 183.29C97.2883 183.328 97.1349 183.375 96.9878 183.413C96.5892 182.269 96.1906 181.117 95.7859 179.972C95.7246 179.98 95.6633 179.995 95.5958 180.003C95.5958 181.565 95.51 183.135 95.6204 184.674C95.7185 185.95 95.9515 187.303 96.2336 188.456C96.7916 190.698 97.9444 192.701 98.8151 194.82C99.3547 196.135 99.7594 197.55 100.367 198.811C101.409 200.991 102.709 202.994 103.616 205.252C104.119 206.498 104.089 208.098 104.217 209.552C104.297 210.426 104.279 211.323 104.205 212.205C104.003 214.741 103.751 217.278 103.285 219.845C103.187 219.072 103.089 218.306 102.991 217.533C102.93 217.541 102.874 217.556 102.813 217.564V220.665C102.752 220.673 102.691 220.681 102.629 220.688C102.482 219.528 102.292 218.376 102.194 217.208C102.041 215.36 102.016 213.496 101.82 211.656C101.605 209.63 100.931 207.812 99.8882 206.242C99.3486 205.423 97.7114 204.951 97.2208 205.438C96.8529 204.154 96.4788 202.871 96.1109 201.587C96.0005 201.626 95.8963 201.664 95.7859 201.711C95.8902 202.468 95.9944 203.234 96.0986 203.992C96.0067 204.015 95.9208 204.038 95.8288 204.054C95.7369 203.458 95.651 202.855 95.5529 202.26C95.4548 201.656 95.3322 201.061 95.2279 200.466C95.0991 200.496 94.9765 200.527 94.8477 200.566C94.8968 201.285 95.2095 202.236 94.9581 202.693C93.5968 205.144 94.5718 207.735 94.4798 210.248C94.3756 213.226 94.1242 216.187 94.0199 219.165C93.9402 221.446 93.9708 223.735 93.9954 226.017C93.9954 226.372 94.1364 226.813 94.3326 227.053C94.8355 227.656 95.1972 228.058 94.1364 228.321C93.9647 228.368 93.8237 229.265 93.8298 229.76C93.885 232.907 94.7312 235.807 95.6081 238.699C96.2458 240.803 96.5034 243.177 97.4416 245.018C98.9929 248.057 99.3486 251.436 99.8514 254.793C100.005 255.813 99.5325 256.981 99.3486 258.079C99.2382 258.048 99.1217 258.017 99.0113 257.986C99.0911 257.391 99.1708 256.803 99.2505 256.208C99.2014 256.185 99.1524 256.169 99.0972 256.146C98.9623 256.509 98.8274 256.881 98.6557 257.345C98.5637 257.128 98.5085 257.058 98.5024 256.981C98.2939 254.909 98.1038 252.836 97.8524 250.771C97.8279 250.562 97.368 250.485 97.2085 250.245C97.0675 250.037 97.0798 249.681 97.0001 249.395C96.9203 249.116 96.8406 248.652 96.6996 248.614C94.8416 248.134 94.5657 245.876 93.6826 244.329C93.4374 243.896 93.5293 243.154 93.468 242.558C93.3515 242.574 93.235 242.582 93.1124 242.597C93.186 243.239 93.1124 243.997 93.3577 244.515C94.1364 246.178 94.2468 247.979 94.1793 249.805C94.1548 250.446 93.7378 251.057 93.5968 251.715C93.4251 252.519 93.2411 253.362 93.2657 254.182C93.3331 256.386 93.4742 258.59 93.652 260.786C93.7624 262.155 93.9586 263.524 94.1977 264.869C94.8416 268.543 95.4241 272.239 96.2274 275.858C96.6567 277.784 97.6746 279.501 98.0915 281.426C98.5637 283.615 98.6496 285.935 98.9255 288.201C99.0052 288.858 99.1462 289.508 99.042 290.242C98.3123 288.023 97.5703 285.803 96.8467 283.576C96.4604 282.385 96.3501 281.148 95.1175 280.491C94.5657 280.197 94.4737 278.534 94.1119 277.281C94.026 277.66 93.9034 277.9 93.9525 278.024C94.7619 279.857 94.2713 281.697 93.9954 283.53C93.9157 284.056 93.6459 284.527 93.5355 285.046C92.7138 288.928 93.3515 292.539 94.6883 296.104C95.1972 297.473 95.2156 299.12 95.559 300.605C95.651 301.015 96.0986 301.301 96.3868 301.641C96.534 301.819 96.8161 302.005 96.81 302.183C96.767 303.467 96.6628 304.75 96.5647 306.258C95.9576 304.866 96.0619 303.095 94.6392 302.6C94.4982 302.554 94.4982 301.711 94.4982 301.232C94.4982 300.52 94.5595 299.809 94.3081 299.082C93.8482 302.368 93.2166 305.632 92.9959 308.942C92.8794 310.643 93.4312 312.453 93.793 314.17C94.3265 316.698 94.9336 319.212 95.559 321.71C96.0067 323.496 96.5769 325.228 97.043 327.007C97.6316 329.226 98.2142 331.454 98.7047 333.704C98.8519 334.385 98.6679 335.181 98.6679 335.924C98.6679 336.674 98.6986 337.432 98.717 338.182C98.7293 338.63 98.7477 339.071 98.625 339.535C97.9444 335.924 97.1534 332.42 95.4855 329.335C95.3383 329.064 94.9152 328.677 94.8416 328.739C94.5779 328.971 94.2591 329.358 94.2407 329.714C94.0322 333.186 93.6826 336.666 93.7808 340.131C93.8482 342.621 93.652 344.979 93.1737 347.354C93.1185 347.616 93.1308 347.895 93.1001 348.158C93.0081 348.993 92.9161 349.828 92.8364 350.517C92.4992 349.457 92.1251 348.467 91.8798 347.431C91.6775 346.596 91.6346 345.699 91.4997 344.709C91.3218 346.062 91.1501 347.338 90.9846 348.606C90.8619 348.583 90.7393 348.56 90.6167 348.537V346.812C87.4035 351.622 87.2625 357.763 86.0054 363.756C85.7601 362.248 85.5762 361.15 85.3983 360.052C85.2634 360.029 85.1224 360.005 84.9875 359.982C84.1842 362.642 83.5649 365.427 82.5041 367.917C81.9767 369.154 81.4923 370.848 80.1064 371.312C79.9961 371.35 79.947 371.652 79.855 371.861C80.18 371.946 80.4376 372.008 80.6951 372.077C80.6277 372.309 80.5479 372.75 80.505 372.742C80.2168 372.704 79.9347 372.572 79.6282 372.456C77.7518 377.228 78.6409 382.316 78.5428 387.443C78.1319 384.93 77.7272 382.424 77.3164 379.911C77.2428 379.919 77.1692 379.934 77.0895 379.942C77.1692 380.916 77.2428 381.891 77.3225 382.865C75.5933 377.668 76.881 372.271 76.6357 366.617C76.3966 367.236 76.2678 367.561 76.2126 367.708C76.0471 365.473 75.8631 363.068 75.6792 360.663L75.4155 360.686C75.1825 361.83 74.9556 362.967 74.7226 364.127C74.2402 364.096 73.8314 363.493 73.4962 362.318C73.2386 362.743 73.0056 363.122 72.7051 363.625C72.5948 362.89 72.4967 362.217 72.3924 361.544C72.282 361.56 72.1717 361.575 72.0674 361.591V364.004C71.7118 363.903 71.35 363.795 70.6877 363.601C71.2825 361.97 71.8896 360.292 72.5028 358.613C72.3617 358.544 72.2207 358.482 72.0858 358.412C71.9754 358.807 71.8651 359.193 71.7547 359.596C71.7118 359.549 71.6259 359.495 71.6259 359.441C71.6259 358.892 71.5523 357.902 71.6566 357.871C72.4905 357.624 72.0184 357.051 71.8896 356.634C71.5769 355.59 71.399 354.6 72.0919 353.664C72.1717 353.556 72.1839 353.169 72.1103 353.099C71.7118 352.721 71.2703 352.403 70.5651 351.839C70.5283 351.537 70.4363 350.749 70.3321 349.96C70.234 349.264 70.3443 348.251 69.2958 348.869C69.2467 348.142 69.216 347.439 69.1363 346.75C69.0628 346.085 68.934 345.428 68.8297 344.771C68.7132 344.786 68.5967 344.802 68.4802 344.809C68.5354 345.637 68.5906 346.472 68.6458 347.299C68.5967 347.323 68.5477 347.346 68.4925 347.377C68.3821 347.006 68.1429 346.611 68.192 346.279C68.4679 344.368 67.493 343.092 66.8982 341.561C66.3524 340.154 66.3769 338.375 65.7883 337.014C64.7704 334.686 65.0586 332.614 65.7576 330.301C66.4566 327.989 65.9109 326.048 64.6416 324.958C64.2491 325.994 63.8628 327.038 63.4704 328.074C63.4091 328.043 63.3539 328.012 63.2926 327.981C63.5378 324.416 63.7892 320.859 64.0345 317.294C63.8996 317.271 63.7647 317.247 63.6359 317.224C62.9124 318.578 62.1888 319.931 61.2383 321.71C61.3916 320.256 61.4959 319.297 61.6001 318.33C61.4836 318.284 61.3732 318.237 61.2567 318.191C60.9195 321.377 60.0426 324.238 57.5101 326.806C56.4677 326.93 55.8913 328.824 54.9837 330.533C55.0941 329.907 55.0634 329.165 55.3332 328.677C56.9459 325.77 57.087 322.259 57.8964 319.026C58.4667 316.745 59.0554 314.471 60.3921 312.739C61.8761 310.821 62.6794 308.385 63.0779 305.98C63.4152 303.946 64.3963 302.299 64.6171 300.265C64.9604 297.102 65.2916 293.916 65.8312 290.799C66.6222 286.229 66.0213 281.666 66.1562 276.74C65.126 279.447 64.2246 281.829 63.3171 284.21L62.894 284.133C62.9921 281.527 63.0657 278.913 63.2128 276.315C63.2251 276.059 63.6482 275.843 63.9303 275.557C63.7095 275.448 63.4949 275.34 63.3477 275.263C63.7525 274.428 64.1878 273.608 64.568 272.75C66.2972 268.829 65.8925 264.583 65.7208 260.368C65.635 258.311 65.543 256.254 65.4388 254.197C65.4081 253.648 65.3345 253.099 65.0279 252.333C64.0161 255.249 63.0044 258.157 62.1152 260.709C61.4959 258.087 62.3789 255.048 62.6242 251.978C62.6303 251.869 62.6242 251.715 62.6732 251.668C65.1689 249.333 64.5312 245.683 65.034 242.535C65.3713 240.424 65.5001 238.251 65.592 236.101C65.6595 234.485 65.5246 232.845 65.4878 231.221C65.4755 230.757 65.5553 230.27 65.4755 229.829C65.4203 229.535 65.1444 229.311 64.8623 228.901C65.034 226.133 65.2241 222.985 65.4204 219.745C63.9119 220.333 64.4454 222.529 63.4459 223.496C63.4765 222.916 63.5133 222.351 63.544 221.74C63.0534 222.482 62.6978 223.565 62.1397 223.766C59.7789 224.617 59.0124 227.099 58.1662 229.512C57.8412 230.432 57.5346 231.26 58.0191 232.551C58.4176 233.603 57.8719 235.274 57.645 236.642C57.0195 240.455 56.3266 244.237 53.9535 247.067C53.7757 247.283 53.6592 247.577 53.4814 247.802C53.3404 247.979 53.1564 248.095 52.8375 248.382C52.813 247.09 52.304 245.953 53.3526 244.886C53.7389 244.492 53.8002 243.525 53.929 242.798C54.1866 241.298 54.3889 239.79 54.3215 238.212C54.2479 238.854 54.1743 239.496 54.1007 240.138C53.9719 240.107 53.8432 240.076 53.7083 240.045C53.9106 238.846 54.2234 237.663 54.2785 236.457C54.3644 234.647 54.254 232.822 54.2663 231.005C54.2785 228.283 54.8059 225.723 55.9955 223.441C56.8294 221.848 57.7738 220.348 58.6752 218.801C59.1167 218.044 59.4662 217.131 60.0365 216.559C61.2383 215.352 61.5449 213.643 61.9558 211.957C62.3482 210.333 62.9492 208.74 63.1209 207.078C63.4152 204.131 63.6666 201.216 64.5496 198.424C64.7826 197.681 64.7029 196.761 64.6784 195.926C64.6722 195.694 64.3411 195.47 63.9793 195.013C63.9364 194.41 63.8751 193.444 63.777 192.036C62.5077 195.292 61.3671 198.215 60.2511 201.076C59.9261 200.891 59.503 200.651 59.0799 200.411C59.0308 200.512 58.9879 200.605 58.9388 200.705C59.0921 200.891 59.2516 201.076 59.5153 201.394C59.1351 201.479 58.8407 201.54 58.1723 201.687C58.6139 200.249 58.9204 199.004 59.3681 197.844C59.9568 196.328 60.7416 194.936 61.2874 193.405C62.2195 190.783 61.5695 187.86 62.1152 185.161C62.3421 184.048 62.8265 183.019 63.1331 181.921C63.3723 181.055 63.5194 180.15 63.7095 179.253C63.5746 179.137 63.4397 179.013 63.3048 178.897C62.0294 180.676 60.76 182.462 59.503 184.218V181.48L59.7605 181.642C60.1468 180.684 60.527 179.725 60.9133 178.773C60.8336 178.704 60.7539 178.634 60.6681 178.565C60.4044 178.851 60.1407 179.129 59.7912 179.508C59.8586 178.905 59.9016 178.503 59.9322 178.209C58.8039 179.23 57.7615 180.173 56.5228 181.294C56.6332 180.66 56.6945 180.281 56.7559 179.91C56.7068 179.91 56.5842 179.841 56.5535 179.887C54.4073 183.143 51.4333 185.803 51.5805 191.162C51.8012 190.559 51.8871 190.319 51.9729 190.072C51.2677 191.673 52.7394 193.498 51.5743 195.168C51.2432 195.64 51.7338 196.993 51.8012 197.944C52.0404 201.038 50.6852 203.366 49.3055 205.585C48.539 206.815 47.4966 207.766 46.3989 209.05C46.5339 208.33 46.5461 207.611 46.7975 207.07C47.2513 206.072 47.8461 205.167 48.4654 204.077L48.5635 204.007ZM50.8876 251.854C51.188 251.823 51.4946 251.792 51.7644 251.761C51.2677 253.478 50.814 255.017 50.3663 256.564C50.3112 256.533 50.2498 256.509 50.1946 256.478C50.4277 254.94 50.6607 253.401 50.8937 251.862C51.1512 251.421 51.4026 250.98 51.7031 250.454C51.2309 249.789 51.4885 248.861 52.5003 248.188C52.3654 249.194 52.2243 250.269 52.0956 251.251C51.6541 251.467 51.2677 251.653 50.8814 251.846L50.8876 251.854ZM109.871 270.932C110.024 271.466 110.196 272.084 110.374 272.695C110.264 272.78 110.153 272.866 110.043 272.951C109.614 272.224 109.184 271.497 108.694 270.662C107.621 270.337 107.431 268.651 106.922 267.576C105.885 265.38 106.621 262.92 106.646 260.098C107.056 260.801 107.302 261.064 107.394 261.397C107.872 263.098 108.179 264.892 108.798 266.501C109.313 267.839 110.196 268.945 110.883 270.182C111.852 271.945 112.778 273.732 113.728 275.518L113.415 275.758C110.981 273.724 110.417 272.873 110.822 272.386C110.503 271.899 110.178 271.404 109.871 270.932ZM110.552 125.397C111.341 126.949 111.564 128.597 111.22 130.339C110.742 129.481 110.227 128.537 109.706 127.594C109.755 127.547 109.797 127.501 109.847 127.455C110.073 127.679 110.306 127.895 110.717 128.29C110.656 127.253 110.619 126.534 110.552 125.397ZM116.021 280.599C115.88 280.661 115.733 280.723 115.592 280.785C115.059 279.23 114.531 277.683 113.998 276.129C114.176 276.036 114.354 275.951 114.525 275.858C115.022 277.436 115.525 279.014 116.021 280.591V280.599ZM24.6795 198.811C24.1767 200.435 23.9988 202.468 22.0918 202.886C23.0054 201.448 23.8394 200.133 24.6795 198.811ZM132.768 240.238C131.725 239.836 130.671 237.748 130.677 235.652C131.407 237.253 132.142 238.87 132.768 240.238Z" fill="url(#paint0_linear_118_467)" fill-opacity="0.6"/>
<path d="M80.0402 374.799C80.8251 373.384 81.5737 372.193 82.1808 370.902C84.9279 365.04 87.6319 359.147 90.3361 353.254C90.5016 352.899 90.5936 352.435 90.5998 352.017C90.612 347.903 90.5998 343.788 90.5998 339.682V332.204C90.1584 332.459 89.8088 332.66 89.1408 333.039C91.0413 330.703 90.606 328.02 90.6183 325.522C90.6306 321.137 90.3728 316.745 90.4035 312.36C90.4403 306.66 90.7099 300.961 90.7589 295.261C90.7957 290.498 90.6549 285.734 90.5998 280.97C90.5875 279.98 90.6001 278.998 90.3058 277.667C89.7049 278.611 89.0972 279.547 88.4962 280.491C88.4105 280.398 88.331 280.297 88.2453 280.205C88.3986 279.926 88.5146 279.585 88.7169 279.376C90.489 277.582 90.5384 275.007 90.5998 272.509C90.6978 268.666 90.6425 264.814 90.6915 260.963C90.7161 258.837 90.8391 256.71 90.882 254.583C90.9678 250.624 91.0291 246.665 91.1027 242.706C91.1885 238.042 91.3233 233.371 91.3478 228.708C91.3662 225.46 91.1634 222.211 91.1818 218.963C91.1941 216.095 91.4156 213.226 91.4708 210.349C91.569 205.114 91.5686 199.878 91.6974 194.65C91.7833 191.139 92.0655 187.635 92.1759 184.125C92.2556 181.727 92.114 179.323 92.2121 176.933C92.4328 171.411 92.7276 165.897 93.0158 160.375C93.0342 159.966 93.2185 159.571 93.3595 159.022C94.4815 159.733 95.5112 160.352 96.5167 161.041C99.9629 163.384 100.478 168.921 99.8097 172.586C99.2578 175.618 99.0069 178.766 98.8107 181.875C98.682 183.885 99.2645 185.749 100.282 187.38C100.975 188.486 101.582 189.677 102.269 190.907C103.195 189.994 103.127 188.811 102.906 187.721C102.091 183.769 102.472 180.243 104.366 176.732C106.218 173.298 107.922 169.578 108.027 165.24C108.082 162.997 107.898 160.654 107.432 158.497C106.953 156.293 105.997 154.25 105.249 152.139C104.188 149.162 101.963 147.662 99.9943 145.976C98.1731 144.414 97.5471 142.326 97.216 139.875C97.0933 138.962 96.9833 138.011 97.0324 137.098C97.1121 135.598 97.0753 134.121 98.547 133.254C100.19 132.288 101.662 131.074 103.568 130.764C105.984 130.377 108.34 129.388 110.737 128.753C111.553 128.537 112.417 128.584 113.257 128.599C115.176 128.638 117.115 128.56 119.016 128.854C122.529 129.403 126.031 130.123 128.336 134.152C128.575 134.562 128.961 134.84 129.354 135.265V135.281C130.451 131.383 130.734 127.585 130.531 123.672C130.329 119.705 128.735 116.349 127.674 112.769C127.306 111.532 126.515 110.449 125.81 109.413C125.197 108.508 124.399 108.593 124.013 109.675C122.774 113.117 120.229 114.145 117.734 115.266C115.747 116.163 113.772 116.883 111.577 116.674C109.535 116.481 107.432 116.604 105.402 116.983C100.791 117.826 96.4558 116.172 92.0714 114.95C91.1149 114.687 90.2568 114.099 90.8331 112.375C91.3666 110.789 90.9553 109.412 89.8331 108.391C89.0914 107.711 88.8027 107.1 89.5998 106.009C90.0044 105.452 90.2438 104.03 89.9679 103.481C88.9929 101.555 88.9621 99.6216 89.3117 97.5181C89.5262 96.2267 89.594 94.9662 88.9318 93.729C88.6681 93.234 88.6624 92.2903 88.8341 91.6948C89.3797 89.8467 89.1587 88.1065 88.8214 86.2661C88.6253 85.1759 88.8461 83.9542 88.883 82.7944C88.9013 82.199 89.1038 81.5258 88.9445 81.0386C88.4907 79.693 88.171 78.4089 88.7658 77.0015C88.8332 76.8313 88.8333 76.4605 88.7414 76.3677C87.5274 75.084 88.398 73.7147 88.5206 72.3228C88.6126 71.2092 88.2945 70.0415 88.1535 68.9048C88.0676 68.1858 87.779 67.3972 87.9259 66.7632C88.49 64.281 88.4231 61.8987 87.6691 59.5093C87.5403 59.0994 87.6376 58.5806 87.6437 58.1089C87.6744 56.8253 88.0614 55.3328 87.6691 54.312C86.8291 52.1313 87.638 50.0511 87.4542 47.9556C87.3807 47.074 87.0187 46.2229 86.9757 45.3413C86.9328 44.4675 87.1105 43.5704 87.2208 42.6812C87.2638 42.3177 87.4541 41.9618 87.4357 41.6138C87.356 40.0903 87.1478 38.5669 87.1662 37.0435C87.1723 36.4172 87.6319 35.7831 87.8956 35.1646C88.2697 34.283 88.7965 33.4626 89.005 32.5269C89.2319 31.5217 88.9134 30.7178 88.0246 30.1997C87.2704 29.7589 87.4416 28.7609 87.8585 28.0571C89.1708 25.8454 90.5572 23.688 91.8878 21.4917C92.1392 21.0818 92.4637 20.5243 92.4269 20.0835C92.2491 18.158 92.1209 16.1935 91.6671 14.3608C90.5511 9.82156 87.675 6.87524 85.1242 3.7124C83.9714 2.28177 82.4992 1.22269 81.0705 0.225098C80.5922 -0.115173 79.6353 -0.0618896 79.1876 0.33252C76.6 2.59064 74.2331 5.15817 71.9581 7.96533C70.3087 10.0069 69.518 12.451 68.4572 14.771C67.9789 15.815 68.1939 17.331 68.0099 18.6147C67.7954 20.0916 68.6163 20.8107 69.2111 21.8081C70.4375 23.8574 71.5108 26.0541 72.59 28.2349C72.9701 28.9926 72.8048 29.681 72.1183 30.145C71.3886 30.64 71.0759 33.3697 71.7443 33.9497C72.8172 34.8931 72.9399 35.9451 72.8664 37.5688C72.7192 40.7782 73.0376 44.0188 73.0744 47.2437C73.0866 48.4732 72.7985 49.7105 72.7433 50.9478C72.6391 53.2523 72.9334 55.5186 72.3263 57.8618C71.934 59.3774 72.4856 61.2564 72.4367 62.9575C72.3999 64.3263 72.0077 65.6805 71.9464 67.0493C71.8913 68.302 71.9834 69.6011 72.1857 70.8306C72.339 71.7585 72.5651 72.4467 71.9826 73.3901C71.0507 74.898 71.5906 76.6999 71.7746 78.4165C71.8727 79.36 71.6337 80.3659 71.5724 81.3403C71.5111 82.3532 71.1737 83.5748 71.4923 84.3481C72.5286 86.8383 71.4068 89.035 71.2228 91.355C71.1799 91.9195 71.2285 92.4917 71.2101 93.064C71.1794 93.9067 71.1126 94.7496 71.088 95.6001C71.0574 96.8451 71.0878 98.0982 71.0265 99.3354C70.9713 100.557 71.0268 101.872 70.6896 102.978C70.1868 104.61 70.4012 105.94 71.1554 107.169C70.0455 108.77 68.8251 110.101 69.5119 112.537C69.7816 113.495 69.469 114.369 68.3839 114.625C65.8882 115.212 63.4407 116.179 60.9328 116.651C59.167 116.983 57.3339 116.744 55.5314 116.783C53.9861 116.814 52.4277 117.053 50.8947 116.875C47.884 116.527 44.8364 116.256 41.9054 115.39C39.0542 114.547 36.9446 112.073 35.6017 108.748C31.4934 110.937 27.1769 125.754 30.7824 135.389C31.6899 134.183 32.4988 132.829 33.5167 131.792C35.4667 129.813 37.8406 129.133 40.2872 128.87C41.6482 128.723 43.0093 128.576 44.3703 128.522C49.0244 128.336 53.569 129.163 57.9289 131.228C59.2962 131.878 60.5903 132.883 61.7921 133.943C62.2825 134.376 62.6076 135.358 62.7179 136.155C62.8404 137.106 62.5889 138.127 62.6134 139.117C62.638 140.191 62.7972 141.266 62.9259 142.697C61.675 144.282 60.1664 146.27 58.5783 148.141C57.9957 148.822 57.229 149.27 56.5177 149.757C54.7273 150.995 54.0404 153.276 53.3537 155.418C52.765 157.243 52.5754 159.285 52.2443 161.242C51.2019 167.359 53.8871 172.015 55.9474 177.026C57.1922 180.05 57.9656 183.468 57.4015 187.041C57.1624 188.556 56.8558 190.056 56.5431 191.757C59.8235 189.63 61.9697 184.155 61.3136 179.933C60.915 177.373 60.5041 174.813 60.0197 172.277C59.1674 167.83 60.6392 164.25 63.2023 161.706C64.0055 160.909 64.9194 160.29 65.8146 159.664C66.1579 159.424 66.6056 159.416 67.004 159.3C67.004 161.442 66.9184 163.407 67.0226 165.348C67.2004 168.789 67.5308 172.215 67.7208 175.657C67.8189 177.389 67.6969 179.129 67.7521 180.869C67.9115 185.733 68.1809 190.597 68.2667 195.469C68.3219 198.671 68.0582 201.889 68.0705 205.09C68.0827 208.245 68.1869 211.401 68.4015 214.541C68.5426 216.605 69.1989 218.647 69.1867 220.696C69.1621 224.292 68.6777 227.872 68.6164 231.468C68.5489 235.42 68.7205 239.38 68.8371 243.332C68.9536 247.214 69.1868 251.096 69.2726 254.986C69.3523 258.489 69.3153 261.992 69.3214 265.496C69.3276 269.13 69.2973 272.765 69.3341 276.4C69.3709 279.764 69.5053 283.128 69.5421 286.492C69.6035 291.851 69.6224 297.211 69.6408 302.57C69.6469 305.292 69.573 308.014 69.6037 310.736C69.6404 314.185 69.8065 317.627 69.8126 321.076C69.8372 329.258 69.8062 337.44 69.7755 345.629C69.7694 347.717 69.6043 349.805 69.6779 351.885C69.7024 352.682 70.1251 353.486 70.4562 354.228C72.4184 358.628 74.387 363.022 76.4044 367.383C77.4897 369.742 78.6728 372.023 80.0402 374.799ZM75.4415 20.1772H80.3712V20.7104H75.4474C75.4474 20.5327 75.4477 20.3549 75.4415 20.1772ZM69.6808 133.58C69.6624 132.799 69.657 132.025 69.6203 131.244C69.6019 130.795 69.5704 130.331 69.4845 129.898C69.3741 129.372 69.2033 128.869 69.1359 128.637C70.8528 126.882 73.2807 127.555 74.507 125.049C74.6357 124.786 75.0524 124.763 75.3039 124.57C75.684 124.276 76.1136 123.997 76.3956 123.58C76.9106 122.799 77.3584 121.941 77.7814 121.083C77.8856 120.866 77.9222 120.379 77.8058 120.216C77.0332 119.134 76.2483 118.058 75.3898 117.091C75.1015 116.767 74.5128 116.512 74.1818 116.659C72.7041 117.316 71.2324 118.051 69.8283 118.924C68.0194 120.046 67.6453 121.237 68.007 123.696C68.1541 124.716 69.0498 127.601 69.1359 128.637C69.0624 128.645 68.1385 126.825 68.0626 126.828C67.3575 123.688 66.646 120.548 65.9777 117.571C66.413 118.174 66.9462 118.924 67.547 119.767C67.8474 119.094 68.0505 118.63 68.2589 118.151C68.4674 118.352 68.6146 118.492 68.8292 118.701C69.1297 117.904 69.2155 116.419 70.258 117.819C70.3745 117.579 70.4658 117.324 70.6007 117.115C71.7719 115.328 74.1027 117.022 75.1574 114.609C75.2861 114.98 75.3835 115.283 75.6349 116.025C75.8556 115.205 76.0827 114.78 76.046 114.393C75.9418 113.202 75.8991 113.21 76.8986 113.426C77.199 116.867 77.8488 117.726 79.9396 119.791C81.9631 117.525 83.4232 114.377 82.8468 112.351C82.1232 109.791 81.1785 107.255 79.6271 105.121C78.5173 107.788 77.53 110.147 76.549 112.505L76.2121 112.359C76.5309 110.835 76.8561 109.312 77.1749 107.789C77.1872 107.742 77.2296 107.641 77.2296 107.641C77.6873 107.198 77.8057 106.809 77.5851 106.474C77.8856 105.925 78.1252 105.507 78.4748 104.88C78.3766 105.584 78.3154 106.033 78.254 106.474C78.3826 106.505 78.5112 106.528 78.6398 106.559C78.8544 104.951 79.1427 103.341 79.2531 101.717C79.3573 100.148 79.2775 98.5545 79.2775 96.9771C79.4307 96.9693 79.5842 96.9535 79.7374 96.9458C79.8417 98.1213 80.1608 99.3438 79.9953 100.45C79.6397 102.777 80.5713 104.672 81.0128 106.737C81.0313 106.83 81.1845 106.884 81.3683 107.031C81.2641 106.505 81.1912 106.095 81.1115 105.693C81.2218 105.585 81.338 105.484 81.4484 105.375C81.7366 105.809 82.1043 106.188 82.2882 106.675C82.6193 107.541 82.8773 108.453 83.0919 109.381C83.2943 110.271 83.4659 111.184 83.5333 112.104C83.6069 113.132 83.5519 114.168 83.5519 115.205C83.6867 115.22 83.8155 115.236 83.9503 115.251C83.9871 114.223 84.0305 113.194 84.0734 112.166H84.2384C84.4714 113.295 84.6985 114.424 84.9376 115.607C86.4522 116.264 88.2059 117.014 89.7511 117.687C90.6403 118.7 91.4681 119.644 92.3205 120.611C92.7987 119.644 93.2524 118.731 93.7062 117.811C93.884 118.329 93.9145 118.893 93.7062 119.195C92.7557 120.602 92.4184 122.165 92.3449 124.021C92.2896 125.475 91.7503 126.906 91.3517 128.321C91.2965 128.529 90.8385 128.552 90.5685 128.66C90.635 129.17 90.7022 129.681 90.7687 130.192C90.6155 130.146 90.462 130.092 90.2843 130.03C90.6522 131.314 90.0883 132.697 89.7081 132.195C88.9296 131.167 88.9111 132.682 88.4943 132.566C87.5316 131.592 86.0662 132.148 85.2384 130.586C84.5455 129.279 83.5091 128.258 82.7794 127.315H80.8292C80.4797 129.171 80.1299 131.043 79.7804 132.922C79.4064 131.631 79.3942 130.37 79.2287 129.14C79.1244 128.351 78.8975 127.099 78.5236 126.967C77.984 126.774 77.1193 127.207 76.6349 127.725C75.4821 128.955 74.4829 130.409 73.3976 131.747C72.8028 132.481 71.5942 132.443 71.3673 131.739C70.9749 132.404 70.5762 133.061 70.1837 133.718L69.6808 133.58ZM89.9347 128.583C90.0606 128.72 90.339 128.628 90.5519 128.638C91.5003 126.525 91.7682 124.229 91.591 121.863C91.5479 121.298 91.1734 120.672 90.8117 120.27C89.5117 118.816 88.132 117.501 86.3722 117.022C86.011 116.929 85.6927 116.613 85.6124 116.566C83.7362 116.914 83.4415 119.535 81.7677 120.015C81.639 120.054 81.4732 121.027 81.6261 121.291C82.5336 122.86 83.809 123.982 84.9005 125.258C86.4396 127.052 88.4692 127.029 89.9347 128.583ZM68.0099 153.546C68.6841 152.069 68.3227 150.097 69.3283 148.775L69.757 148.976C69.3155 150.561 68.8801 152.155 68.4386 153.74V153.748C68.2977 153.678 68.1569 153.616 68.0099 153.546ZM80.0343 195.887C80.1999 195.879 80.3658 195.864 80.5314 195.856V213.712H80.0343V195.887ZM79.715 273.43V214.069L79.7218 214.053C79.8137 214.038 79.8994 214.022 79.9914 214.006C80.1508 215.8 80.4325 217.595 80.4386 219.389C80.4509 222.622 80.2058 225.862 80.2365 229.094C80.2855 233.317 80.5493 237.532 80.629 241.754C80.6903 244.948 80.611 248.142 80.5988 251.343C80.5988 252.689 80.666 254.042 80.6046 255.38C80.5126 257.399 80.2493 259.417 80.2248 261.435C80.188 265.062 80.2854 268.697 80.3039 272.324C80.3039 272.703 80.2001 273.089 80.1388 273.468C79.9978 273.453 79.856 273.438 79.715 273.43ZM79.5988 319.312V280.096C79.5557 280.166 79.3971 280.398 79.4093 280.382C79.5688 278.31 79.7337 276.082 79.9054 273.855L80.3654 273.933V284.195C80.3654 284.195 80.4266 284.056 80.5001 283.917C80.5124 283.893 80.5798 283.924 80.6105 283.932C80.31 295.725 80.9539 307.557 79.9728 319.328H79.9669L79.5988 319.312ZM79.8078 320.04H80.2003V328.801C80.0717 328.809 79.9425 328.824 79.8078 328.832V320.04ZM79.9728 370.144C79.8992 368.667 79.8016 367.182 79.7648 365.705C79.7035 363.477 79.7089 361.242 79.6476 359.015C79.5863 356.765 79.4089 354.522 79.3966 352.272C79.3844 350.346 79.5681 348.42 79.5988 346.495C79.6356 344.043 79.6541 341.591 79.5744 339.14C79.507 337.083 80.0771 334.818 78.5753 333.109C78.5263 333.055 78.5998 332.815 78.6183 332.645C78.8818 332.854 79.1211 333.039 79.5255 333.356C79.6175 332.297 79.6847 331.469 79.7521 330.634C79.893 330.619 80.034 330.595 80.1749 330.58C80.2608 343.757 80.3469 356.935 80.4328 370.113C80.2795 370.121 80.1261 370.136 79.9728 370.144Z" fill="url(#paint1_linear_118_467)"/>
</g>
<defs>
<linearGradient id="paint0_linear_118_467" x1="80" y1="283" x2="80.042" y2="178.5" gradientUnits="userSpaceOnUse">
<stop stop-color="#EEEE00"/>
<stop offset="1" stop-color="#A17328"/>
</linearGradient>
<linearGradient id="paint1_linear_118_467" x1="79.7156" y1="374.799" x2="79.999" y2="-76.5" gradientUnits="userSpaceOnUse">
<stop offset="0.149038" stop-color="#A40000"/>
<stop offset="0.701923" stop-color="#B15E00"/>
<stop offset="0.826923" stop-color="#FFE100"/>
</linearGradient>
</defs>
</svg>
