<svg width="380" height="56" viewBox="0 0 380 56" fill="none" xmlns="http://www.w3.org/2000/svg">
<mask id="path-1-inside-1_2142_494" fill="white">
<path d="M15.5781 8.40039L42.5586 0H78.5703L127.894 9L137.142 0H278.668L317.785 7.7002L304.001 0H380V56H366.318L374.41 47.5996L351.312 56H0V55.9746L14.2861 42.9746L0 48.2451V0H10.5195L15.5781 8.40039Z"/>
</mask>
<path d="M15.5781 8.40039L42.5586 0H78.5703L127.894 9L137.142 0H278.668L317.785 7.7002L304.001 0H380V56H366.318L374.41 47.5996L351.312 56H0V55.9746L14.2861 42.9746L0 48.2451V0H10.5195L15.5781 8.40039Z" fill="black" fill-opacity="0.2"/>
<path d="M15.5781 8.40039L13.8648 9.43213L14.6743 10.7765L16.1727 10.31L15.5781 8.40039ZM42.5586 0V-2H42.2544L41.964 -1.90958L42.5586 0ZM78.5703 0L78.9293 -1.96751L78.7513 -2H78.5703V0ZM127.894 9L127.535 10.9675L128.549 11.1527L129.288 10.4333L127.894 9ZM137.142 0V-2H136.329L135.747 -1.4333L137.142 0ZM278.668 0L279.054 -1.96234L278.863 -2H278.668V0ZM317.785 7.7002L317.399 9.66254L318.761 5.95416L317.785 7.7002ZM304.001 0V-2H296.32L303.026 1.74603L304.001 0ZM380 0H382V-2H380V0ZM380 56V58H382V56H380ZM366.318 56L364.878 54.6125L361.615 58H366.318V56ZM374.41 47.5996L375.851 48.9871L373.727 45.7201L374.41 47.5996ZM351.312 56V58H351.665L351.996 57.8796L351.312 56ZM0 56H-2V58H0V56ZM0 55.9746L-1.34606 54.4954L-2 55.0904V55.9746H0ZM14.2861 42.9746L15.6322 44.4538L13.5939 41.0982L14.2861 42.9746ZM0 48.2451H-2V51.1147L0.692243 50.1215L0 48.2451ZM0 0V-2H-2V0H0ZM10.5195 0L12.2329 -1.03174L11.6498 -2H10.5195V0ZM15.5781 8.40039L16.1727 10.31L43.1531 1.90958L42.5586 0L41.964 -1.90958L14.9836 6.49081L15.5781 8.40039ZM42.5586 0V2H78.5703V0V-2H42.5586V0ZM78.5703 0L78.2113 1.96751L127.535 10.9675L127.894 9L128.253 7.03249L78.9293 -1.96751L78.5703 0ZM127.894 9L129.288 10.4333L138.536 1.4333L137.142 0L135.747 -1.4333L126.499 7.5667L127.894 9ZM137.142 0V2H278.668V0V-2H137.142V0ZM278.668 0L278.282 1.96234L317.399 9.66254L317.785 7.7002L318.171 5.73785L279.054 -1.96234L278.668 0ZM317.785 7.7002L318.761 5.95416L304.976 -1.74603L304.001 0L303.026 1.74603L316.81 9.44623L317.785 7.7002ZM304.001 0V2H380V0V-2H304.001V0ZM380 0H378V56H380H382V0H380ZM380 56V54H366.318V56V58H380V56ZM366.318 56L367.759 57.3875L375.851 48.9871L374.41 47.5996L372.97 46.2121L364.878 54.6125L366.318 56ZM374.41 47.5996L373.727 45.7201L350.629 54.1204L351.312 56L351.996 57.8796L375.094 49.4792L374.41 47.5996ZM351.312 56V54H0V56V58H351.312V56ZM0 56H2V55.9746H0H-2V56H0ZM0 55.9746L1.34606 57.4538L15.6322 44.4538L14.2861 42.9746L12.9401 41.4954L-1.34606 54.4954L0 55.9746ZM14.2861 42.9746L13.5939 41.0982L-0.692243 46.3687L0 48.2451L0.692243 50.1215L14.9784 44.851L14.2861 42.9746ZM0 48.2451H2V0H0H-2V48.2451H0ZM0 0V2H10.5195V0V-2H0V0ZM10.5195 0L8.8062 1.03174L13.8648 9.43213L15.5781 8.40039L17.2915 7.36865L12.2329 -1.03174L10.5195 0Z" fill="white" fill-opacity="0.6" mask="url(#path-1-inside-1_2142_494)"/>
</svg>
