<svg width="140" height="232" viewBox="0 0 140 232" fill="none" xmlns="http://www.w3.org/2000/svg">
<path d="M69.5748 66.539C72.2174 63.8995 74.8994 61.26 77.5814 58.6205C81.4861 54.7597 85.3908 50.9384 89.2955 47.0776C89.9266 46.4473 90.5971 46.4473 91.2676 47.0776C95.6456 51.1353 100.063 55.1537 104.402 59.2114C108.504 62.9934 112.527 66.8541 116.628 70.5967C119.942 73.6301 123.294 76.5848 126.647 79.5789C129.486 82.1396 132.287 84.7003 135.087 87.261C135.679 87.8125 135.363 88.1277 134.929 88.561C133.352 90.0187 131.813 91.4369 130.275 92.9339C126.607 96.4795 122.939 100.104 119.271 103.65C118.009 104.871 116.707 106.092 115.248 107.431C115.84 107.904 116.313 108.259 116.786 108.653C120.691 111.804 124.635 114.917 128.5 118.108C132.011 120.984 135.481 123.978 138.992 126.853C139.781 127.484 139.899 127.996 139.11 128.666C137.256 130.241 136.704 132.251 136.744 134.654C136.783 138.357 136.468 142.1 136.468 145.803C136.468 150.176 136.428 154.588 136.783 158.921C136.98 161.128 138.203 163.176 139.662 164.909C140.175 165.5 140.057 165.816 139.623 166.21C135.994 169.479 132.326 172.749 128.698 176.058C126.016 178.501 123.412 181.062 120.73 183.544C116.786 187.247 112.803 190.911 108.819 194.574C102.745 200.208 96.75 205.96 90.5971 211.514C85.7063 215.927 81.3284 220.772 77.1081 225.775C75.8065 227.351 74.8205 229.164 73.6767 230.897C73.4795 231.212 73.2823 231.527 72.9668 232C72.7696 231.606 72.6512 231.37 72.5723 231.133C70.8764 225.539 69.3776 219.906 67.4055 214.39C65.6701 209.505 63.6191 204.699 61.3315 200.05C59.9511 197.214 57.8607 194.732 55.9675 192.171C54.9814 190.871 54.8631 190.674 56.0069 189.532C58.0973 187.444 60.0299 185.198 60.9765 182.401C61.6076 180.471 62.1203 178.422 62.1598 176.413C62.2781 168.219 62.2387 160.024 62.2387 151.83C62.2387 151.633 62.1992 151.436 62.1598 150.885C58.1368 154.785 54.3504 158.488 50.2484 162.467C49.4202 161.521 48.6708 160.537 47.8031 159.709C43.149 155.336 38.4555 151.003 33.8014 146.63C30.9221 143.951 28.1612 141.193 25.282 138.515C22.2844 135.717 19.2869 132.881 16.2105 130.163C13.9228 128.153 11.5564 126.184 9.07154 124.411C7.29667 123.19 5.24572 122.362 3.35253 121.338C2.91867 121.102 2.52425 120.826 1.97207 120.511C2.40593 119.959 2.7609 119.447 3.15532 119.014C4.77242 117.162 5.16683 114.877 5.3246 112.553C5.48237 110.032 5.56125 107.471 5.6007 104.95C5.71902 98.016 5.83734 91.0824 5.91622 84.1488C5.95566 80.3274 5.87678 76.5454 5.87678 72.7241C5.83734 67.4057 5.91623 62.0873 5.7979 56.7295C5.75846 54.0506 4.61466 51.7263 2.87924 49.7171C2.05096 48.7322 1.10436 47.8655 0 46.723C15.2639 31.2012 30.5277 15.6006 45.8705 0C57.8607 12.055 69.772 24.0706 81.8805 36.2832C75.0177 43.1381 67.9971 50.1898 60.7399 57.478C60.6216 56.0598 60.4638 55.0355 60.4638 54.0112C60.4638 51.4505 60.5427 48.8898 60.661 46.3291C60.7399 44.3593 61.0554 42.3895 62.1598 40.6955C62.5148 40.144 62.4753 39.8288 62.0415 39.4349C56.5985 33.8801 51.1556 28.3254 45.5549 22.6524C42.0841 26.3556 38.6921 29.9406 35.3001 33.5256C32.0659 36.9136 28.7923 40.2622 25.5186 43.6108C24.7298 44.4381 23.7832 45.1866 23.231 46.1321C22.7972 46.92 22.6394 47.9837 22.6394 48.8898C22.6789 54.8779 22.8366 60.866 22.8761 66.8541C22.9155 73.0786 22.8366 79.3031 22.8366 85.5276C22.8366 88.2065 22.9944 90.846 22.9944 93.5249C22.9944 98.2917 22.8761 103.059 22.8366 107.825C22.8366 109.007 22.9155 110.189 22.9944 111.332C23.0733 112.592 23.6255 113.656 24.5326 114.523C26.5836 116.453 28.6345 118.383 30.646 120.353C36.6017 126.144 42.5179 131.975 48.4736 137.766C49.9329 139.184 51.4711 140.445 53.0488 141.863C54.942 140.09 56.9141 138.278 58.8467 136.466C59.6355 135.717 60.3455 134.93 61.1737 134.26C62.1992 133.433 62.5148 132.487 62.4753 131.187C62.3964 128.311 62.5542 125.435 62.5148 122.52C62.4753 113.853 62.4359 105.147 62.357 96.4795C62.357 93.9976 62.2781 91.4763 62.2387 88.9944C62.2387 88.6004 62.1203 87.5368 62.1203 87.5368L56.0464 84.5427C56.0464 84.5427 37.1144 93.9976 37.2722 93.3279L38.8104 83.8336L69.5748 66.539ZM78.3308 200.287C80.579 198.159 82.551 196.308 84.5625 194.417C85.588 193.432 86.6135 192.486 87.639 191.501C89.7688 189.413 91.8987 187.365 94.0285 185.277C96.6711 182.716 99.3925 180.195 101.996 177.595C106.295 173.34 110.515 169.007 114.775 164.713C115.564 163.925 116.352 163.097 117.26 162.388C118.995 161.009 119.981 159.355 119.981 157.07C119.981 153.839 119.942 150.609 120.139 147.378C120.454 142.848 120.375 138.357 119.823 133.866C119.705 133.039 119.389 132.093 118.837 131.542C116.589 129.414 114.262 127.444 111.935 125.475C108.306 122.402 104.362 119.802 100.26 117.399C98.0515 116.098 95.9611 115.823 93.713 117.32C91.8198 118.58 89.7688 119.644 88.0334 121.062C84.8781 123.662 81.8805 126.499 78.8435 129.296C78.6069 129.493 78.5674 129.966 78.528 130.32C78.4886 131.896 78.5674 133.511 78.528 135.087C78.4491 137.017 78.2125 138.948 78.173 140.878C78.1336 145.566 78.2519 150.294 78.2519 154.982C78.2519 161.009 78.2519 166.997 78.2519 173.025C78.2519 179.604 78.2914 186.222 78.2914 192.801C78.3308 195.165 78.3308 197.568 78.3308 200.287ZM89.966 65.7511C87.0474 68.6663 84.3259 71.5028 81.4467 74.1817C79.4746 75.9939 78.3308 77.9637 78.4491 80.8001C78.6069 84.2669 78.3308 87.7731 78.3308 91.2793C78.2913 98.6857 78.3308 106.053 78.3308 113.459C78.3308 115.153 78.4491 116.886 78.4886 118.817C89.8872 108.338 101.956 99.0402 112.053 87.4974C104.717 80.2486 97.381 73.0392 89.966 65.7511Z" fill="white"/>
</svg>
