<svg width="640" height="14" viewBox="0 0 640 14" fill="none" xmlns="http://www.w3.org/2000/svg">
<path d="M319.966 0.0017773C320.091 0.0294155 320.216 0.160704 320.294 0.278144C321.631 2.37927 322.96 4.48744 324.29 6.58869C329.098 5.45693 333.918 4.33705 338.685 3.17268C339.593 2.94943 340.222 2.9363 341.173 3.17268C345.995 4.34795 350.887 5.46995 355.751 6.61896C355.85 6.6423 355.935 6.67946 356.017 6.71955C363.939 5.49641 371.862 4.27405 379.798 3.05744C380.206 2.99706 380.687 2.98945 381.124 3.00959C386.793 3.31175 392.449 3.63407 398.118 3.92951C402.155 4.13766 406.207 4.33318 410.259 4.51447C414.004 4.67562 417.75 4.81658 421.496 4.94416C426.597 5.11874 431.698 5.28643 436.813 5.42072C444.436 5.62217 452.059 5.81706 459.682 5.9715C465.278 6.08565 470.875 6.13873 476.472 6.20588C484.415 6.29988 492.358 6.39386 500.301 6.47443C504.003 6.50801 507.705 6.51545 511.407 6.51545C533.532 6.54231 555.641 6.56879 577.766 6.60236C583.246 6.60908 588.741 6.62909 594.221 6.64924C603.068 6.68281 611.915 6.70966 620.776 6.75666C625.498 6.7768 630.22 6.81696 634.928 6.85725C636.487 6.87068 638.032 6.90461 639.577 6.93146C639.723 6.93146 639.869 6.96527 640 7.05256C639.096 7.07942 638.193 7.12592 637.289 7.13264C628.413 7.19307 619.537 7.24029 610.661 7.30744C601.333 7.37459 592.005 7.4754 582.663 7.52912C575.959 7.56941 569.254 7.54914 562.564 7.576C553.207 7.61628 543.85 7.66962 534.479 7.71662C525.719 7.76362 516.946 7.80463 508.187 7.86506C502.196 7.90535 496.191 7.94549 490.201 8.01936C481.325 8.12679 472.449 8.26092 463.573 8.3885C458.72 8.46236 453.851 8.52996 448.998 8.63068C443.154 8.75826 437.309 8.91265 431.465 9.06037C427.151 9.16781 422.822 9.28154 418.508 9.41584C414.646 9.53671 410.783 9.68413 406.936 9.83186C401.251 10.0534 395.552 10.269 389.883 10.5174C386.881 10.645 383.878 10.8395 380.876 10.994C380.526 11.0141 380.147 10.9803 379.812 10.9266C372.102 9.73809 364.406 8.53585 356.696 7.34064C356.245 7.27128 355.785 7.21908 355.218 7.15119C352.013 7.88787 348.808 8.62054 345.604 9.36408C343.829 9.77772 342.095 10.2178 340.32 10.6248C340.083 10.6773 339.691 10.6575 339.439 10.5985C334.45 9.42971 329.488 8.2474 324.512 7.07209C324.492 7.06738 324.471 7.06308 324.451 7.05842C324.407 7.1437 324.366 7.22599 324.319 7.30353C322.938 9.47272 321.558 11.6353 320.177 13.8045C320.005 14.0808 319.856 14.0667 319.646 13.742C318.982 12.7059 318.343 11.656 317.688 10.6199C316.978 9.50086 316.244 8.3885 315.558 7.26252C315.518 7.19907 315.497 7.10921 315.494 7.0174C312.544 7.70431 309.685 8.37046 306.827 9.04182C304.577 9.57366 302.354 10.1249 300.104 10.6502C299.852 10.7093 299.419 10.7025 299.153 10.6434C294.155 9.46605 289.156 8.2817 284.171 7.09162C284.1 7.12441 284.026 7.15492 283.937 7.16975C281.845 7.47972 279.738 7.76241 277.66 8.0926C271.588 9.04271 265.53 10.0268 259.429 10.9432C258.543 11.078 257.438 10.9366 256.436 10.8895C250.102 10.6132 243.768 10.3028 237.42 10.0467C230.229 9.76369 223.038 9.49475 215.847 9.27912C208.176 9.05002 200.491 8.88117 192.807 8.71272C185.369 8.55099 177.945 8.39553 170.507 8.27424C165.161 8.18664 159.8 8.14641 154.439 8.08576C148.353 8.01838 142.266 7.93078 136.179 7.88361C127.521 7.82297 118.877 7.80969 110.219 7.76252C103.26 7.72209 96.3012 7.64787 89.3281 7.62092C73.4645 7.55353 57.5863 7.52024 41.7227 7.44611C33.9506 7.41242 26.1637 7.33098 18.3916 7.27033C13.1763 7.2299 7.97507 7.18264 2.75977 7.12873C1.84468 7.12198 0.915078 7.08156 0 7.06135V6.91975H1.81543C5.05502 6.87932 8.28092 6.82561 11.5205 6.79865C16.5033 6.75822 21.5007 6.74455 26.4834 6.7176C31.6113 6.69064 36.7393 6.62385 41.8672 6.62385C59.2273 6.60363 76.6028 6.62336 93.9629 6.58967C106.311 6.56945 118.659 6.52258 131.007 6.47541C138.59 6.44172 146.174 6.40793 153.757 6.33381C160.512 6.26642 167.282 6.16526 174.037 6.05744C180.458 5.95637 186.879 5.86193 193.3 5.71369C199.517 5.56545 205.735 5.35041 211.938 5.14826C216.035 5.02023 220.147 4.88518 224.243 4.72346C227.555 4.59543 230.853 4.42053 234.165 4.27228C237.245 4.13078 240.34 4.01594 243.405 3.84748C248.359 3.58469 253.298 3.28781 258.252 3.01154C258.659 2.99134 259.109 2.99196 259.486 3.05256C267.171 4.23851 274.856 5.43116 282.541 6.62385C282.891 6.67621 283.258 6.71927 283.616 6.76936C283.722 6.73248 283.829 6.69723 283.946 6.6717C289.006 5.46357 294.08 4.24853 299.153 3.05354C299.433 2.98791 299.908 2.9808 300.188 3.03986C304.255 3.99191 308.308 4.96433 312.361 5.92951C313.428 6.18312 314.507 6.43659 315.574 6.69611C316.926 4.54292 318.294 2.3962 319.661 0.249824C319.731 0.146189 319.888 -0.0189386 319.966 0.0017773Z" fill="white"/>
</svg>