<svg width="48" height="48" viewBox="0 0 48 48" fill="none" xmlns="http://www.w3.org/2000/svg">
<path fill-rule="evenodd" clip-rule="evenodd" d="M24 8.30005C21.618 8.30005 18.84 8.35605 16.132 8.43205L16.022 8.43605C13.266 8.51405 11.042 8.57605 9.29 8.86605C7.464 9.16805 5.948 9.74605 4.736 10.992C3.52 12.242 2.99 13.788 2.74 15.638C2.5 17.418 2.5 19.674 2.5 22.478V25.526C2.5 28.326 2.5 30.582 2.74 32.364C2.988 34.214 3.52 35.76 4.736 37.01C5.948 38.258 7.464 38.8341 9.29 39.1361C11.042 39.4261 13.266 39.4881 16.022 39.5661L16.132 39.57C18.842 39.646 21.618 39.702 24 39.702C26.382 39.702 29.16 39.646 31.868 39.57L31.978 39.5661C34.734 39.4881 36.958 39.4261 38.71 39.1361C40.536 38.8341 42.052 38.256 43.264 37.01C44.48 35.76 45.012 34.214 45.26 32.364C45.5 30.584 45.5 28.328 45.5 25.524V22.476C45.5 19.674 45.5 17.418 45.26 15.638C45.012 13.788 44.48 12.242 43.264 10.992C42.052 9.74405 40.536 9.16805 38.71 8.86605C36.958 8.57605 34.734 8.51405 31.976 8.43605L31.868 8.43205C29.2461 8.35247 26.6231 8.30846 24 8.30005ZM21.744 29.302C21.5159 29.4323 21.2576 29.5004 20.9949 29.4996C20.7323 29.4987 20.4744 29.4288 20.2472 29.297C20.02 29.1652 19.8314 28.976 19.7003 28.7484C19.5691 28.5208 19.5001 28.2627 19.5 28V20C19.5001 19.7374 19.5691 19.4793 19.7003 19.2517C19.8314 19.0241 20.02 18.8349 20.2472 18.7031C20.4744 18.5713 20.7323 18.5014 20.9949 18.5005C21.2576 18.4997 21.5159 18.5678 21.744 18.698L28.744 22.698C28.9734 22.8293 29.1641 23.0188 29.2967 23.2475C29.4293 23.4761 29.4992 23.7357 29.4992 24C29.4992 24.2644 29.4293 24.524 29.2967 24.7526C29.1641 24.9813 28.9734 25.1708 28.744 25.302L21.744 29.302Z" fill="white" fill-opacity="0.9"/>
</svg>
