<svg width="48" height="48" viewBox="0 0 48 48" fill="none" xmlns="http://www.w3.org/2000/svg">
<path d="M21.4998 26.08C21.4998 24.94 20.5598 24 19.4198 24C18.2798 24 17.3398 24.94 17.3398 26.08C17.3398 26.6317 17.559 27.1607 17.9491 27.5508C18.3391 27.9409 18.8682 28.16 19.4198 28.16C19.9715 28.16 20.5005 27.9409 20.8906 27.5508C21.2807 27.1607 21.4998 26.6317 21.4998 26.08ZM28.1798 30.82C27.2798 31.72 25.3598 32.04 23.9998 32.04C22.6398 32.04 20.7198 31.72 19.8198 30.82C19.7712 30.7679 19.7124 30.7264 19.647 30.698C19.5816 30.6696 19.5111 30.655 19.4398 30.655C19.3686 30.655 19.2981 30.6696 19.2327 30.698C19.1673 30.7264 19.1085 30.7679 19.0598 30.82C19.0078 30.8686 18.9662 30.9275 18.9378 30.9929C18.9095 31.0582 18.8948 31.1287 18.8948 31.2C18.8948 31.2713 18.9095 31.3418 18.9378 31.4071C18.9662 31.4725 19.0078 31.5314 19.0598 31.58C20.4798 33 23.1998 33.12 23.9998 33.12C24.7998 33.12 27.5198 33 28.9398 31.58C28.9919 31.5314 29.0334 31.4725 29.0618 31.4071C29.0902 31.3418 29.1049 31.2713 29.1049 31.2C29.1049 31.1287 29.0902 31.0582 29.0618 30.9929C29.0334 30.9275 28.9919 30.8686 28.9398 30.82C28.7398 30.62 28.3998 30.62 28.1798 30.82ZM28.5798 24C27.4398 24 26.4998 24.94 26.4998 26.08C26.4998 27.22 27.4398 28.16 28.5798 28.16C29.7198 28.16 30.6598 27.22 30.6598 26.08C30.6598 24.94 29.7398 24 28.5798 24Z" fill="white" fill-opacity="0.9"/>
<path d="M24 4C12.96 4 4 12.96 4 24C4 35.04 12.96 44 24 44C35.04 44 44 35.04 44 24C44 12.96 35.04 4 24 4ZM35.6 26.66C35.64 26.94 35.66 27.24 35.66 27.54C35.66 32.02 30.44 35.66 24 35.66C17.56 35.66 12.34 32.02 12.34 27.54C12.34 27.24 12.36 26.94 12.4 26.66C11.38 26.2 10.68 25.18 10.68 24C10.677 23.4265 10.8436 22.8649 11.1588 22.3857C11.474 21.9066 11.9237 21.5313 12.4515 21.3069C12.9793 21.0825 13.5617 21.0191 14.1254 21.1246C14.6891 21.2302 15.2091 21.4999 15.62 21.9C17.64 20.44 20.44 19.52 23.54 19.42L25.02 12.44C25.04 12.3 25.12 12.18 25.24 12.12C25.36 12.04 25.5 12.02 25.64 12.04L30.48 13.08C30.6441 12.7472 30.8944 12.4643 31.2047 12.2608C31.515 12.0572 31.8741 11.9404 32.2448 11.9224C32.6155 11.9045 32.9842 11.986 33.3128 12.1586C33.6413 12.3312 33.9177 12.5886 34.1133 12.904C34.3088 13.2194 34.4164 13.5814 34.4249 13.9524C34.4334 14.3234 34.3425 14.69 34.1616 15.014C33.9807 15.338 33.7163 15.6078 33.396 15.7952C33.0757 15.9826 32.7111 16.081 32.34 16.08C31.22 16.08 30.32 15.2 30.26 14.1L25.92 13.18L24.6 19.42C27.66 19.52 30.4 20.46 32.4 21.9C32.7066 21.6072 33.0735 21.385 33.4749 21.2488C33.8764 21.1126 34.3028 21.0658 34.7242 21.1116C35.1457 21.1574 35.552 21.2948 35.9148 21.5141C36.2776 21.7333 36.5882 22.0292 36.8247 22.381C37.0612 22.7329 37.218 23.1321 37.2841 23.5509C37.3502 23.9696 37.324 24.3977 37.2074 24.8053C37.0907 25.2129 36.8864 25.59 36.6088 25.9104C36.3311 26.2308 35.9868 26.4866 35.6 26.66Z" fill="white" fill-opacity="0.9"/>
</svg>
