<svg width="48" height="48" viewBox="0 0 48 48" fill="none" xmlns="http://www.w3.org/2000/svg">
<path d="M33.2003 11.64C31.8335 10.0791 31.0801 8.0748 31.0803 6H24.9003V30.8C24.8536 32.1424 24.2874 33.4142 23.3209 34.347C22.3545 35.2798 21.0635 35.8008 19.7203 35.8C16.8803 35.8 14.5203 33.48 14.5203 30.6C14.5203 27.16 17.8403 24.58 21.2603 25.64V19.32C14.3603 18.4 8.32031 23.76 8.32031 30.6C8.32031 37.26 13.8403 42 19.7003 42C25.9803 42 31.0803 36.9 31.0803 30.6V18.02C33.5863 19.8197 36.595 20.7853 39.6803 20.78V14.6C39.6803 14.6 35.9203 14.78 33.2003 11.64Z" fill="white" fill-opacity="0.9"/>
</svg>
