<svg width="1550" height="56" viewBox="0 0 1550 56" fill="none" xmlns="http://www.w3.org/2000/svg">
<path d="M775.888 35.6748C770.561 45.4449 762.039 49.2831 750.676 47.5384C741.798 46.4916 732.921 44.0491 724.399 40.9088C712.68 36.3727 700.962 31.4876 689.599 26.6025C685.693 24.8579 682.142 24.8579 677.881 26.9515C650.893 39.1641 622.841 47.5384 593.368 52.0745C573.482 55.2149 553.952 56.2618 533.711 53.4703C519.507 51.7257 506.014 47.1895 493.585 40.2109C485.773 35.6747 477.961 31.1387 470.149 26.6025C461.982 22.0664 453.104 19.275 443.161 19.275C436.415 19.275 430.378 21.0197 425.407 25.2068C420.435 29.394 419.37 34.628 421.145 40.5598C422.921 46.1427 427.182 48.9342 432.864 49.981C437.835 50.6789 443.872 48.2363 446.002 44.0491C448.133 40.5598 447.423 36.7215 444.582 34.6279C442.806 33.2322 440.676 32.8833 438.545 33.9301C436.77 34.9769 436.415 37.0705 436.77 38.8152C437.125 40.2109 437.48 41.2577 438.19 43.0024C434.639 40.5598 433.929 39.1641 434.639 36.0237C435.349 32.8834 437.835 30.7897 440.676 30.4408C446.357 30.0919 451.329 35.6747 450.263 41.6066C449.198 47.1895 444.582 52.0746 438.545 53.1214C427.892 55.5639 418.305 49.632 416.174 39.1641C415.819 37.7684 415.819 36.0237 415.464 34.2791C413.688 34.2791 411.913 33.9301 410.137 33.9301C300.057 33.9301 189.977 33.9301 79.8969 33.9301C77.0561 33.9301 74.9255 33.9301 72.795 36.3726C69.244 40.5598 64.6277 39.862 60.0115 37.4194C49.7136 45.7938 37.6403 46.8406 25.2119 45.7938C16.3345 45.0959 5.68156 39.1641 0 33.2322C13.8488 17.1814 42.9668 15.7857 58.9462 27.9983C59.6563 27.6493 60.3665 27.3004 61.0767 26.9515C65.693 24.8579 69.5991 25.2069 73.15 29.0451C74.5704 30.4408 75.6357 31.1386 77.7663 31.1386C78.8316 31.1386 79.8969 31.1386 80.9622 31.1386C190.332 31.1386 300.057 31.1386 409.427 31.1386C411.558 31.1386 413.688 31.1386 415.464 31.1386C423.276 17.5303 436.415 12.2963 453.104 15.4367C460.206 16.8324 466.953 19.275 473.7 22.7643C479.026 25.5557 484.708 28.6961 489.679 31.8365C510.63 45.0959 533.711 49.632 558.213 48.9341C596.564 47.5384 633.494 39.1641 668.648 24.5089C670.069 23.8111 671.489 23.1132 672.554 21.3686C665.807 19.6239 659.416 17.8793 652.669 16.4836C635.624 12.6453 618.224 10.5517 600.825 11.5985C588.041 12.2964 575.968 15.4368 564.96 21.7175C559.278 24.8579 553.952 27.9982 548.27 31.1386C541.168 34.9769 533.711 37.4194 525.189 36.7215C519.507 36.3726 514.181 34.9769 509.92 31.1386C504.948 26.9514 503.528 19.9728 506.724 14.3899C509.565 9.15597 515.246 6.36452 521.638 7.41131C525.899 8.10918 528.74 10.5517 530.515 14.3899C531.936 17.5303 530.87 21.0196 528.74 23.1132C526.254 25.2068 523.058 25.2068 520.928 23.4622C518.797 21.7175 518.797 18.9261 521.638 14.7389C521.283 16.4836 520.928 17.5303 520.928 18.2282C521.283 19.6239 521.638 21.7175 522.703 22.0665C524.124 22.4154 526.254 21.7175 527.32 21.0196C529.805 18.5771 528.74 14.3899 525.544 11.9474C521.638 8.807 514.891 9.50495 511.34 13.3432C507.789 17.5304 507.789 23.4621 511.695 27.6493C514.891 30.7897 518.797 32.1854 523.058 32.8833C529.095 33.5811 535.132 32.5344 540.813 30.0919C546.85 27.3004 552.887 23.8111 558.568 20.6707C568.866 14.7388 579.519 10.2027 591.237 8.45807C601.89 6.71341 612.543 6.71345 623.196 7.41131C642.016 9.15597 660.126 12.9942 677.881 18.926C680.366 19.6239 682.142 19.275 684.628 18.2282C697.056 13.6921 709.485 8.80708 721.913 4.61991C730.08 1.82845 738.602 0.432686 747.125 0.432686C751.386 0.432686 755.647 1.13055 759.553 2.17734C766.655 4.27093 772.337 8.807 774.467 17.1814C780.504 2.87516 791.512 -0.61413 805.006 0.0837328C807.491 0.0837328 809.977 0.432707 812.463 0.781638C828.797 3.22416 844.422 8.807 859.336 15.4367C865.727 18.2281 871.409 18.9261 878.511 16.4836C896.266 10.9007 914.731 7.76022 933.551 7.06236C954.857 6.3645 974.387 10.2028 992.497 21.7175C999.954 26.6026 1007.77 31.1386 1017 32.8833C1023.39 33.9301 1029.78 33.5812 1035.46 30.0919C1040.79 26.6025 1042.21 20.3217 1039.01 15.4367C1035.46 9.85379 1026.94 8.807 1022.33 13.692C1020.19 16.1346 1019.84 18.926 1021.26 21.0196C1022.33 22.7643 1024.1 23.8111 1026.23 23.1132C1028.01 22.4154 1028.72 20.6707 1028.01 18.926C1027.65 18.2281 1027.65 17.5303 1027.3 15.7856C1030.49 19.275 1030.85 21.7175 1028.72 24.16C1026.94 25.9046 1023.39 26.2536 1020.9 24.16C1017.35 21.3685 1017 16.4835 1020.55 12.6453C1024.1 8.45811 1029.07 7.41129 1034.04 8.80702C1039.37 10.2027 1042.57 13.692 1043.63 18.926C1044.7 25.5557 1041.86 31.1386 1035.46 34.6279C1028.01 38.4662 1020.55 38.8151 1012.74 36.3726C1008.12 34.9769 1003.51 32.8834 998.889 30.7898C995.693 29.394 992.852 27.6493 990.011 25.9046C971.901 14.041 952.016 10.5517 931.065 11.9474C914.376 12.9942 898.396 15.7857 882.417 20.3218C880.641 20.6708 879.221 21.3686 876.735 22.0665C878.156 23.1133 879.221 23.8111 880.286 24.16C904.078 34.279 928.935 41.2576 954.857 45.4448C972.256 48.2363 989.656 49.9809 1007.41 48.5852C1023.39 47.5384 1038.66 43.7002 1052.51 36.0237C1058.55 32.8834 1064.58 29.045 1070.62 25.9046C1078.79 21.3685 1087.31 16.8324 1096.54 15.7856C1101.87 15.0878 1107.55 14.7388 1112.88 15.4367C1122.82 17.1814 1130.98 22.0665 1134.18 32.1855C1136.31 32.1855 1138.09 32.1855 1140.22 32.1855C1249.94 32.1855 1359.67 32.1855 1469.39 32.1855C1472.94 32.1855 1475.78 32.1855 1478.27 29.0451C1480.05 26.6026 1483.6 26.2537 1486.44 27.3005C1487.86 27.6494 1488.92 28.3472 1490.34 28.6962C1504.55 16.8325 1533.67 16.4835 1550 33.2322C1536.15 49.9809 1506.32 50.3299 1491.05 38.8152C1490.34 39.1641 1489.28 39.513 1488.57 40.2109C1483.95 42.3044 1480.4 41.6066 1477.2 38.1172C1475.78 36.3726 1474.36 35.6748 1472.23 36.0237C1471.17 36.0237 1469.75 36.0237 1468.33 36.0237C1359.67 36.0237 1251.01 36.0237 1142.35 36.0237C1139.86 36.0237 1137.38 36.0237 1134.89 36.0237C1134.18 38.4663 1133.83 40.9088 1133.12 43.0024C1129.21 53.8192 1116.07 58.3553 1106.48 52.0745C1102.22 49.2831 1099.74 45.4448 1100.09 40.2109C1100.45 36.3726 1103.29 32.8833 1106.84 31.8365C1110.39 30.7897 1113.59 32.1854 1115.01 34.9769C1116.78 38.4662 1116.07 41.2577 1111.81 44.3981C1112.52 42.3045 1113.23 41.2576 1113.23 40.2109C1112.88 38.4662 1112.88 36.3726 1111.45 34.9769C1109.68 33.2322 1107.55 33.9301 1105.77 35.3258C1102.58 37.7684 1102.22 42.3045 1104.71 46.1427C1110.03 53.1214 1121.4 52.7724 1126.72 45.4448C1130.99 39.8619 1130.63 32.5343 1125.66 27.6493C1121.75 23.4621 1116.43 21.3685 1110.39 20.6707C1100.8 19.6239 1091.92 21.3685 1083.4 25.9046C1075.23 30.0918 1067.42 34.628 1059.97 39.1641C1047.89 46.4917 1034.75 51.3766 1020.9 53.8192C1010.25 55.5638 999.244 56.2617 988.591 55.9128C952.016 54.866 917.216 46.4916 883.482 32.8833C879.221 31.1386 875.315 29.7429 871.409 27.6493C868.213 25.9046 865.017 26.2536 861.821 27.6493C850.813 32.1854 839.45 37.0705 828.442 41.2577C819.565 44.747 810.332 47.5384 800.745 48.5852C797.194 48.9341 793.643 49.2831 790.092 48.5852C784.41 46.4916 778.373 43.7002 775.888 35.6748ZM780.504 26.2536C782.279 30.4408 785.475 32.8833 789.736 33.5812C795.063 34.279 800.034 33.2323 803.94 29.0451C804.651 28.3472 805.716 27.6494 806.426 27.3005C805.361 32.1855 801.81 34.2791 797.904 35.6748C790.802 38.1173 784.41 36.0237 778.729 30.7898C778.018 35.3259 779.439 38.8152 782.99 40.9088C787.251 43.7002 791.867 45.4449 797.194 44.747C803.23 43.7002 809.622 43.0023 815.304 40.9088C827.377 36.7216 839.095 31.4876 850.813 26.9515C854.364 25.5558 857.56 24.1601 861.821 22.0665C857.915 20.3218 855.074 18.9261 852.234 17.8793C838.03 11.9474 823.471 6.71349 808.202 4.61991C800.034 3.57311 792.577 4.61984 785.831 8.80702C780.859 11.9474 778.729 16.4835 779.794 22.4153C790.447 19.2749 796.839 21.0197 798.259 27.3005C790.802 21.0197 785.831 21.0196 780.504 26.2536ZM771.627 22.4153C771.982 16.1346 769.851 11.5984 764.525 8.45807C757.778 4.61982 750.676 3.57311 742.864 4.61991C724.399 7.06243 707.709 13.6921 691.019 21.3686C690.664 21.3686 690.664 22.0664 690.664 22.4153C691.019 22.7643 691.375 23.1132 691.73 23.1132C702.028 27.6493 712.325 32.1854 722.978 36.3726C732.566 40.2108 742.509 43.3513 753.161 44.3981C758.488 45.0959 763.459 43.7002 767.721 40.9088C770.916 38.8152 772.692 35.6747 771.627 31.1386C767.01 34.9769 762.039 37.0704 756.357 36.3726C749.966 35.6747 744.994 31.8365 743.929 26.6025C748.19 30.7897 752.096 33.9301 757.778 33.5812C764.169 33.5812 768.076 30.7897 769.496 25.2068C763.104 19.9729 757.423 22.0664 751.031 27.6493C756.002 20.3217 761.329 18.926 771.627 22.4153ZM6.03664 32.8833C19.8854 45.0959 37.6403 45.0959 52.1993 38.8152C54.685 37.7684 57.8809 36.3726 57.8809 33.2322C57.8809 29.7429 55.0401 28.3472 52.1993 27.3005C44.0321 23.8111 35.1546 22.4154 26.2772 23.8111C18.4651 24.8579 12.0733 28.3472 6.03664 32.8833ZM1545.74 32.8833C1531.18 21.7175 1515.56 20.3218 1499.22 26.9515C1496.38 27.9983 1493.18 29.394 1493.54 32.8833C1493.54 36.3726 1496.74 37.7684 1499.58 38.8152C1515.91 45.4448 1531.18 44.0491 1545.74 32.8833ZM774.822 28.6962C775.178 28.6962 775.533 28.6962 775.888 28.6962C776.598 26.2536 776.598 26.2536 774.822 23.1132C774.822 25.9047 774.822 27.3004 774.822 28.6962Z" fill="white"/>
</svg>
