<svg width="24" height="24" viewBox="0 0 24 24" fill="none" xmlns="http://www.w3.org/2000/svg">
<path d="M16.7988 0.199829C20.6631 0.199829 23.7988 3.3356 23.7988 7.19983V16.7994C23.7988 20.6637 20.6631 23.7994 16.7988 23.7994H7.19922C3.33499 23.7994 0.199219 20.6637 0.199219 16.7994V7.19983C0.199289 3.33565 3.33504 0.1999 7.19922 0.199829H16.7988ZM7.19922 2.19983C4.43961 2.1999 2.19929 4.44022 2.19922 7.19983V16.7994C2.19922 19.5591 4.43956 21.7994 7.19922 21.7994H16.7988C19.5585 21.7994 21.7988 19.5592 21.7988 16.7994V7.19983C21.7988 4.44017 19.5585 2.19983 16.7988 2.19983H7.19922ZM11.999 6.19983C15.2032 6.19983 17.7987 8.7955 17.7988 11.9996C17.7988 15.2039 15.2033 17.7994 11.999 17.7994C8.79489 17.7993 6.19922 15.2038 6.19922 11.9996C6.19939 8.79561 8.795 6.2 11.999 6.19983ZM11.999 8.19983C9.89957 8.2 8.19939 9.90018 8.19922 11.9996C8.19922 14.0992 9.89946 15.7993 11.999 15.7994C14.0987 15.7994 15.7988 14.0993 15.7988 11.9996C15.7987 9.90007 14.0986 8.19983 11.999 8.19983ZM17.999 4.19983C18.993 4.19983 19.7996 5.00567 19.7998 5.99963C19.7998 6.99375 18.9931 7.80042 17.999 7.80042C17.0051 7.80024 16.1992 6.99364 16.1992 5.99963C16.1994 5.00578 17.0052 4.2 17.999 4.19983Z" fill="white"/>
</svg>
