<svg width="699" height="30" viewBox="0 0 699 30" fill="none" xmlns="http://www.w3.org/2000/svg">
<path d="M0 24.7557L5.8888 9.58287C5.8888 9.58287 92.4541 2.66191 144.275 6.92096C196.097 11.18 312.695 4.79143 312.695 4.79143C342.728 2.39572 407.74 -0.958287 427.527 4.79143C447.313 10.5412 456.185 7.18715 458.148 4.79143L692.522 0L699 15.1729L557.669 17.3024C516.251 23.8684 442.955 35.0839 481.115 27.4176C519.274 19.7514 485.237 16.0602 463.448 15.1729L360.394 17.3024L344.495 29.5472L280.896 17.3024L196.097 15.1729L177.253 21.5615C163.316 18.2784 132.969 12.8304 123.076 17.3024C113.183 21.7744 36.9031 24.1346 0 24.7557Z" fill="white"/>
</svg>
