<svg width="1920" height="400" viewBox="0 0 1920 400" fill="none" xmlns="http://www.w3.org/2000/svg">
<g filter="url(#filter0_df_2090_1966)">
<path d="M571.451 95.513C565.55 92.7163 314.766 130.139 217.894 178.414L29.0683 194.395C29.0683 194.395 35.4607 305.173 1.03933 360.107C-33.3821 415.042 798.632 223.27 798.632 223.27C798.632 223.27 870.426 236.845 893.537 236.845C916.649 236.845 1426.08 286.695 1426.08 286.695C1649.17 225.601 1893.13 254.124 1910.44 249.33C1927.75 244.536 1917.65 173.42 1910.44 142.457C1888.81 132.469 1713.65 123.08 1668.02 133.468C1610.98 146.452 1521.48 95.513 1464.44 62.5522C1407.4 29.5914 1359.7 86.0243 1240.7 48.5688C1121.7 11.1134 1159.07 40.5783 1111.38 48.5688C1063.68 56.5593 1037.12 73.5391 1008.11 150.448C979.099 227.356 921.566 161.435 893.537 120.483C865.508 79.532 841.413 95.513 810.434 62.5522C779.455 29.5914 808.959 120.483 674.715 133.468C540.472 146.452 639.311 133.468 571.451 142.457C503.592 151.446 578.827 99.0089 571.451 95.513Z" fill="url(#paint0_linear_2090_1966)"/>
</g>
<defs>
<filter id="filter0_df_2090_1966" x="-30" y="0" width="1980" height="400" filterUnits="userSpaceOnUse" color-interpolation-filters="sRGB">
<feFlood flood-opacity="0" result="BackgroundImageFix"/>
<feColorMatrix in="SourceAlpha" type="matrix" values="0 0 0 0 0 0 0 0 0 0 0 0 0 0 0 0 0 0 127 0" result="hardAlpha"/>
<feOffset dy="4"/>
<feGaussianBlur stdDeviation="2"/>
<feComposite in2="hardAlpha" operator="out"/>
<feColorMatrix type="matrix" values="0 0 0 0 0 0 0 0 0 0 0 0 0 0 0 0 0 0 0.25 0"/>
<feBlend mode="normal" in2="BackgroundImageFix" result="effect1_dropShadow_2090_1966"/>
<feBlend mode="normal" in="SourceGraphic" in2="effect1_dropShadow_2090_1966" result="shape"/>
<feGaussianBlur stdDeviation="15" result="effect2_foregroundBlur_2090_1966"/>
</filter>
<linearGradient id="paint0_linear_2090_1966" x1="1006.09" y1="92.4258" x2="1008.79" y2="438.604" gradientUnits="userSpaceOnUse">
<stop/>
<stop offset="1"/>
</linearGradient>
</defs>
</svg>
