<svg width="1920" height="1574" viewBox="0 0 1920 1574" fill="none" xmlns="http://www.w3.org/2000/svg">
<mask id="mask0_2078_2376" style="mask-type:alpha" maskUnits="userSpaceOnUse" x="0" y="0" width="1920" height="1574">
<path d="M1920 0H0V1574H1920V0Z" fill="#D9D9D9"/>
</mask>
<g mask="url(#mask0_2078_2376)">
<path d="M926.716 -86C932.669 -79.7756 933.481 -74.4304 934.97 -69.6943C941.736 -47.9756 948.231 -26.1205 954.727 -4.33398C958.651 8.7243 962.372 21.8506 966.364 34.9766C967.379 38.4269 968.935 41.6744 970.491 45.666C973.874 45.3954 977.056 45.6661 979.896 44.9219C1019 34.367 1058.04 23.5415 1097.15 12.9189C1102.16 11.5657 1107.5 7.43891 1111.83 14.2725C1114.13 12.2427 1115.55 10.483 1117.45 9.40039C1118.26 8.92695 1120.29 9.26559 1121.03 10.0098C1121.78 10.754 1122.12 12.7838 1121.58 13.5957C1119.14 17.3847 1116.84 20.9702 1110.95 20.3613C1106.62 19.9554 1101.95 21.1732 1097.69 22.5264C1077.66 28.6833 1057.7 35.0443 1037.81 41.4043C1028.68 44.3136 1019.68 47.4933 1010.55 50.335C1004.79 52.1618 1001.61 55.6802 999.855 61.5664C996.54 72.8656 992.481 84.0296 988.083 97.0879C990.18 103.313 993.157 111.364 995.729 119.551C998.3 127.805 1000.67 136.128 1002.83 144.518C1009.4 169.146 1015.76 193.774 1022.45 218.402C1023.88 223.544 1024.48 229.228 1029.49 233.085C1034.36 232.476 1039.3 231.799 1044.17 231.394C1045.26 231.326 1046.88 232.341 1047.42 233.288C1047.89 234.235 1047.83 236.264 1047.15 237.009C1042.89 241.474 1039.03 246.548 1032.2 246.685C1032.47 258.052 1041.33 291.678 1047.76 306.293C1052.77 308.932 1057.71 306.834 1061.76 304.398C1065.55 302.166 1069.21 301.827 1073.27 301.286C1082.74 299.933 1092.08 298.038 1101.48 296.279C1106.35 295.332 1111.16 293.844 1114.81 299.324C1115.49 300.339 1118.94 299.459 1121.24 299.459C1123.47 306.36 1125.43 312.856 1127.73 319.216C1130.1 325.914 1133.96 330.515 1142.75 327.538C1145.73 336.469 1151.55 342.558 1158.92 347.362C1163.66 350.475 1166.57 355.076 1168.8 360.15C1170.43 363.872 1172.12 367.525 1173.88 371.449C1188.49 372.058 1202.23 368.202 1216.16 366.849C1229.63 365.563 1242.96 362.654 1256.22 362.856C1257.71 365.766 1256.76 367.119 1254.8 367.593C1251.69 368.337 1248.57 369.014 1245.39 369.217C1231.66 370.164 1218.53 373.75 1205.34 377.269C1192.15 380.787 1178.75 383.493 1165.55 387.012C1153.31 390.259 1140.93 392.898 1128.61 395.672C1122.86 396.957 1118.8 400.002 1117.04 405.956C1114.07 415.97 1110.89 425.984 1107.91 435.93C1107.23 438.095 1107.3 440.598 1106.15 442.425C1104.53 444.928 1102.77 447.838 1098.77 447.5C1096.54 447.297 1094.24 447.567 1092.08 448.176C1089.71 448.852 1088.29 450.612 1088.56 453.318C1088.69 454.671 1089.1 455.957 1089.57 457.242C1116.3 533.292 1138.63 610.764 1159.19 688.708C1173.13 741.55 1186.6 794.46 1200.33 847.37C1201.35 851.294 1202.7 855.152 1204.05 859.617C1208.52 860.497 1212.85 861.376 1217.25 862.256C1217.23 862.306 1217.21 862.356 1217.19 862.406C1227.46 855.007 1239.31 854.605 1251.48 854.137C1252.7 859.685 1253.78 864.421 1254.8 868.751C1256.29 869.36 1257.23 870.104 1257.98 869.969C1269.55 867.939 1281.05 865.571 1292.89 865.368C1298.91 865.3 1304.39 863 1309.6 860.022C1315.76 856.505 1319.08 851.7 1317.11 844.325H1317.18C1315.35 837.762 1313.26 831.334 1311.63 824.771C1309.87 817.533 1311.5 813.54 1318.26 810.563C1326.45 806.978 1334.91 804.068 1344.25 805.15C1348.51 810.631 1348.91 817.127 1351.01 822.945C1352.09 825.922 1353.11 829.102 1357.37 828.29V828.426C1356.09 838.304 1357.71 847.168 1365.76 854.137C1367.38 855.49 1367.79 858.129 1369.14 859.888C1371.31 862.797 1375.44 863.473 1378.95 861.646C1381.8 860.226 1383.22 856.978 1381.66 853.595C1380.31 850.686 1379.36 848.521 1380.65 844.867C1383.22 837.763 1382.07 830.591 1377.67 824.163C1376.99 823.216 1376.72 821.998 1375.98 820.171C1382.2 818.838 1388 817.564 1393.78 816.294C1390.89 818.311 1387.92 820.363 1384.5 822.742C1386.4 827.749 1388.02 832.35 1389.92 836.748C1391.27 839.995 1394.04 841.416 1397.42 841.213C1399.57 841.079 1401.79 840.477 1403.94 840.138C1410.08 836.027 1412.48 830.407 1410.55 823.08C1409.81 820.103 1409.33 817.058 1408.59 813.54C1405.74 813.292 1403.35 813.102 1400.94 812.916C1402.84 811.267 1404.59 809.225 1406.76 808.33C1422.26 801.97 1437.21 794.46 1451.42 785.597C1453.64 784.224 1456.18 783.479 1458.6 782.454C1460.37 780.529 1461.9 778.312 1463.93 776.733C1473.75 769.291 1483.83 762.322 1493.43 754.744C1498.44 750.82 1502.57 745.948 1507.37 741.753C1508.59 740.738 1510.82 740.265 1512.38 740.535C1513.87 740.806 1515.09 742.497 1516.37 743.444C1515.69 744.797 1515.42 746.015 1514.82 746.219C1508.05 748.88 1504.12 754.451 1503.04 762.931C1501.82 762.389 1500.74 761.713 1499.52 761.442C1494.86 760.427 1492.22 761.51 1490.59 765.163C1487.48 771.929 1487.82 780.59 1491.61 789.927C1496.28 789.588 1498.51 785.867 1501.08 782.822C1524.08 755.826 1546.89 728.695 1569.89 701.698C1605.34 660.223 1640.93 618.747 1676.52 577.339C1717.46 529.706 1758.46 482.074 1799.53 434.509C1806.02 426.999 1812.72 419.692 1819.35 412.249C1823.21 415.091 1822.8 418.338 1821.31 421.112C1819.42 424.698 1816.92 428.013 1814.41 431.193C1777 479.367 1739.65 527.609 1701.96 575.58C1657.24 632.55 1615.09 691.346 1572.46 749.872C1569.48 753.932 1566.91 758.194 1564.07 762.321C1561.23 766.448 1560.89 770.508 1562.92 775.177C1570.3 792.633 1572.46 810.901 1570.97 829.711C1570.03 841.957 1568.94 854.204 1568 866.45C1567.86 868.209 1568 869.969 1568 872.134C1573.48 874.569 1578.21 872.607 1582.88 871.39C1600.07 866.856 1617.18 862.256 1634.3 857.723C1638.7 856.572 1643.03 855.219 1647.5 854.137C1652.57 852.987 1655.41 850.144 1655.62 844.731C1655.62 843.718 1657.17 842.769 1658.8 840.942C1660.56 844.055 1661.98 846.627 1663.67 849.604C1666.1 849.604 1668.81 850.009 1671.31 849.604C1699.05 844.395 1726.73 838.98 1754.47 833.838C1762.04 832.417 1769.76 831.402 1777.4 830.455C1789.78 828.899 1789.78 828.966 1797.77 819.291C1801.9 820.509 1806.56 820.916 1809.14 826.396C1806.7 828.358 1803.93 829.982 1802.1 832.35C1800.61 834.312 1800.41 837.154 1799.73 839.251C1798.04 839.522 1796.82 840.063 1796.28 839.657C1788.36 833.974 1780.18 835.26 1771.65 838.169C1748.85 846.018 1725.78 853.121 1703.11 861.376C1685.18 867.939 1666.64 872.337 1648.58 878.358C1630.85 884.245 1612.92 889.388 1595.13 894.868C1587.75 897.101 1580.38 899.469 1572.93 901.566C1567.12 903.19 1563.53 906.641 1562.45 912.798C1561.1 920.443 1559.2 927.953 1557.91 935.599C1557.03 940.944 1554.73 944.666 1549.66 947.169C1546.07 948.928 1542.56 951.433 1540.05 954.478C1536.33 958.942 1538.02 964.354 1543.17 966.79C1545.19 967.805 1547.43 968.414 1549.46 969.429C1553.99 971.661 1558.18 971.594 1562.18 968.347C1565.83 965.37 1569.89 964.017 1574.83 964.287C1578.28 964.49 1581.8 963.34 1586.06 962.663C1586.81 965.911 1588.09 968.888 1588.02 971.865C1587.75 984.585 1587.28 997.305 1586.6 1010.03C1586.13 1019.7 1582.2 1027.55 1573.68 1032.76C1571.38 1034.18 1569.35 1036.07 1567.25 1037.83C1564.21 1040.4 1562.52 1043.52 1564.27 1047.44C1565.76 1050.82 1565.36 1053.6 1562.52 1055.97C1559 1058.94 1558.25 1062.87 1559 1067.13C1559.81 1071.46 1559.13 1075.11 1556.22 1078.56C1554.53 1080.59 1553.11 1083.17 1552.5 1085.74C1549.86 1096.7 1542.49 1106.24 1542.56 1118.08C1542.56 1118.48 1542.56 1119.16 1542.22 1119.36C1535.52 1124.17 1534.64 1132.69 1529.77 1138.51C1526.52 1142.44 1524.56 1146.9 1521.85 1150.96C1515.56 1160.37 1508.18 1169.03 1501.08 1177.89C1499.12 1180.39 1496.48 1182.36 1494.45 1184.79C1493.37 1186.14 1491.81 1188.44 1492.28 1189.53C1495.19 1195.89 1490.12 1199.74 1487.55 1204.82C1488.43 1207.19 1489.44 1209.62 1490.25 1212.19C1490.93 1214.29 1492.15 1216.66 1491.68 1218.49C1490.19 1223.49 1491.2 1228.23 1491.68 1233.24C1492.69 1243.18 1489.24 1251.84 1480.71 1257.66V1262.06C1480.99 1275.79 1489.98 1283.1 1500.88 1288.58C1504.6 1290.48 1507.64 1292.51 1510.28 1295.96C1513.53 1300.15 1518.13 1303.26 1522.19 1306.85C1524.9 1309.22 1527.6 1311.45 1530.99 1314.36C1537.35 1314.36 1544.18 1314.22 1550.81 1318.83C1555.28 1321.87 1562.11 1321.53 1567.93 1322.28C1574.69 1323.09 1581.53 1323.16 1588.23 1324.1C1594.32 1324.92 1599.12 1323.29 1602.23 1317.95C1607.24 1309.35 1615.56 1304.55 1623.14 1298.8C1625.3 1297.17 1628.15 1296.02 1629.57 1293.93C1633.96 1287.63 1639.99 1287.23 1646.55 1288.24C1652.84 1289.26 1659.2 1290.07 1665.36 1291.56C1672.4 1293.25 1673.27 1295.28 1671.65 1302.32C1670.57 1306.71 1669.42 1311.18 1668.94 1315.65C1668.47 1319.64 1670.84 1322.61 1674.7 1323.83C1676.86 1324.51 1679.09 1324.91 1681.39 1325.19C1692.69 1326.61 1703.99 1327.96 1715.29 1329.18C1716.58 1329.31 1717.93 1328.7 1720.3 1328.23C1722.94 1321.13 1725.71 1313.55 1728.49 1305.97C1730.85 1305.5 1732.54 1305.02 1734.3 1304.82C1746.35 1303.67 1749.8 1306.17 1745.67 1316.8C1740.6 1329.92 1744.72 1336.08 1756.56 1340.34C1759.88 1341.56 1762.38 1344.74 1765.5 1346.5C1770.7 1349.48 1776.25 1351.44 1782.41 1351.23C1782.43 1351.27 1782.44 1351.3 1782.46 1351.34C1791.23 1345.49 1801.52 1343.68 1811.37 1341.09C1818.47 1339.19 1825.71 1341.83 1832.55 1343.18C1833.63 1347.38 1833.09 1352.25 1830.92 1357.8C1843.3 1358.88 1855.41 1358.34 1867.59 1356.99C1874.77 1356.17 1882.01 1356.04 1889.25 1355.77C1890.6 1355.77 1892.09 1355.9 1893.24 1356.51C1900.14 1360.23 1907.31 1362.53 1915.29 1360.84C1916.11 1360.64 1917.05 1361.05 1917.93 1361.32C1923.01 1362.67 1927.07 1366.73 1927 1370.31C1926.93 1373.97 1922.87 1378.84 1917.66 1378.77C1906.3 1378.64 1895.74 1385.13 1884.1 1382.43C1882.88 1382.16 1881.13 1382.16 1880.18 1382.83C1875.1 1386.35 1868.61 1388.38 1866.78 1394.88C1867.46 1398.73 1870.1 1399.75 1872.74 1400.42C1877.13 1401.57 1881.53 1402.59 1886 1403.54C1892.76 1404.96 1898.79 1407.73 1904.54 1411.79C1910.08 1415.65 1916.51 1418.15 1923.35 1421.6C1922.67 1424.51 1922.13 1427.55 1921.25 1430.4C1920.84 1431.55 1919.83 1432.76 1918.75 1433.44C1913.26 1436.82 1907.24 1435.27 1901.42 1434.93C1897.36 1434.73 1894.93 1432.22 1893.58 1428.37C1893.24 1427.35 1891.68 1426.74 1890.33 1425.66C1888.7 1426.68 1887.01 1427.42 1885.79 1428.57C1882.48 1431.75 1878.62 1432.49 1874.43 1431.14C1868.14 1429.04 1862.38 1428.91 1856.09 1432.29C1851.42 1434.86 1845.81 1435.74 1840.53 1436.96C1833.43 1438.58 1826.39 1440.14 1819.22 1436.49C1815.22 1434.42 1811.1 1434.7 1806.92 1437.12C1804.98 1423.6 1802.34 1410.41 1800 1400.5C1778 1390.5 1722.4 1373.1 1676 1383.5C1618 1396.5 1527 1345.5 1469 1312.5C1411 1279.5 1362.5 1336 1241.5 1298.5C1120.5 1261 1158.5 1290.5 1110 1298.5C1061.5 1306.5 1034.5 1323.5 1005 1400.5C975.62 1477.19 917.476 1412.03 888.85 1371H722.555C707.811 1376.77 689.339 1381.28 666 1383.5C544.673 1395.05 610.586 1386.07 578.285 1390.25C577.676 1389.53 577.01 1388.81 576.237 1387.97C574.952 1388.92 574.004 1389.6 573.057 1390.27C573.273 1390.44 573.49 1390.64 573.707 1390.85C570.291 1391.29 566.11 1391.83 561 1392.5C524.031 1397.32 528.831 1384.49 540.1 1371H499.935C491.451 1374.9 482.332 1379.14 472.743 1383.63C473.214 1382.29 473.35 1380.58 472.854 1379.58C471.703 1377.28 469.064 1377.08 467.034 1378.43C465.275 1379.58 463.11 1381.28 462.704 1383.1C462.325 1384.85 462.413 1386.61 463.434 1388C419.098 1408.84 366.324 1434.23 319.961 1456.76C311.669 1458.48 303.269 1459.83 296.328 1465.51C293.825 1467.54 291.389 1469.57 288.953 1471.6C288.697 1471.81 288.438 1472.02 288.181 1472.23C277.399 1477.49 267.258 1482.46 258 1487L251.023 1488.54C251.969 1484.82 255.464 1484.84 257.627 1483.58C264.122 1479.86 269.332 1475.26 272.174 1467.95C273.798 1463.75 276.707 1460.1 278.872 1456.11C280.631 1452.86 280.09 1449.95 277.384 1447.51C274.001 1444.54 270.55 1441.63 267.167 1438.58C262.634 1434.59 258.642 1433.85 253.635 1437.37C248.831 1440.75 244.838 1445.21 240.17 1448.87C236.652 1451.64 232.863 1454.21 228.871 1456.18C226.232 1457.46 223.459 1456.65 222.309 1453.2C224.068 1445.42 234.081 1443.52 235.908 1435.47C228.06 1432.7 222.105 1432.29 217.64 1434.79C215.407 1436.08 213.512 1438.25 211.889 1440.34C210.265 1442.51 209.588 1445.35 207.964 1447.45C204.784 1451.51 200.928 1454.48 195.38 1454.48C192.2 1454.48 188.817 1455.7 185.907 1455.03C176.435 1452.72 167.842 1455.84 159.452 1459.08C155.054 1460.78 150.724 1461.32 146.19 1461.18C141.657 1461.05 136.921 1460.51 132.591 1461.45C127.246 1462.6 122.915 1461.79 118.518 1458.75C114.526 1456.04 110.06 1455.84 105.595 1458.27C103.633 1459.35 101.4 1460.17 99.167 1460.37C86.5823 1461.52 74.2005 1464.23 61.9541 1467.14C54.1056 1469.03 46.5954 1466.8 39.0176 1465.38C35.6346 1464.7 34.0104 1461.66 34.3486 1458.14C34.7547 1453.81 37.2587 1450.7 39.6943 1447.38C43.8893 1441.56 43.1444 1437.43 37.6641 1433.51C35.0931 1431.68 32.3186 1430.06 29.6123 1428.43C25.2147 1425.8 20.6817 1424.24 15.3369 1425.93C8.77417 1427.96 4.03716 1426.07 0.924805 1419.44C-3.20244 1410.84 -11.457 1407.73 -20.0498 1405.9C-24.1769 1405.02 -27.6948 1404.14 -30.9424 1401.17C-37.0318 1395.55 -44.7455 1392.85 -53 1390.95C-46.437 1390.82 -39.6708 1390.75 -34.9346 1385.54C-28.101 1378.03 -19.3057 1377.96 -10.916 1380.4C-2.25565 1382.9 7.21704 1382.56 15.2686 1387.3C16.0127 1387.7 17.0277 1387.77 17.9072 1387.91C23.726 1388.85 41.1824 1381.34 44.2949 1376.2C45.3774 1374.44 45.716 1371.87 45.4453 1369.84C44.8364 1365.38 43.145 1360.98 42.8066 1356.51C42.6039 1354.28 44.3627 1351.91 45.7158 1348.39C49.0311 1351.23 51.4667 1353.06 53.6318 1355.23C61.1419 1362.8 63.9165 1363.48 72.1709 1357.39C75.8243 1354.69 79.1398 1353.81 83.4697 1354.28C87.2587 1354.75 90.3714 1353.06 93.1455 1350.29C97.9493 1345.48 103.092 1340.95 108.166 1336.42C112.293 1332.76 116.894 1331.75 122.036 1334.32C123.254 1334.93 124.675 1335.2 125.825 1335.88C130.223 1338.58 134.418 1338.18 138.681 1335.47C140.575 1334.32 142.537 1333.37 143.958 1332.56C152.686 1337.03 160.738 1341.09 169.466 1345.55C169.804 1347.58 170.142 1350.22 170.751 1352.86C172.036 1358.41 175.217 1360.3 180.697 1358.68C182.389 1358.14 184.08 1357.32 185.568 1356.38C189.154 1354.21 192.673 1354.48 195.785 1356.85C200.183 1360.17 204.446 1363.21 210.332 1363.48C211.724 1363.48 212.94 1366.26 214.254 1368.06C225.056 1364.83 235.386 1364.78 245.38 1371.26C249.236 1373.77 254.041 1373.56 259.386 1371.8C256.747 1368.69 254.176 1365.98 251.876 1363.01C249.643 1360.23 247.68 1357.19 245.65 1354.35C246.396 1348.19 250.184 1344.81 255.056 1341.76C265.408 1335.33 275.489 1328.37 286.044 1321.4C287.194 1322.21 288.886 1323.43 291.254 1325.12C293.148 1322.82 295.043 1320.52 296.802 1318.42C295.99 1317 295.584 1315.65 295.11 1315.65C285.91 1315.17 285.164 1307.8 283.337 1301.23C284.352 1298.33 285.435 1295.35 286.382 1292.64C285.976 1291.42 285.908 1290.27 285.367 1289.73C281.781 1286.55 279.82 1282.9 280.022 1277.89C280.158 1272.48 280.224 1266.93 276.978 1261.52C272.85 1260.98 268.655 1260.37 263.581 1259.69C265.543 1254.35 270.685 1254.68 273.662 1251.77C274 1250.83 274.745 1249.54 274.812 1248.26C275.151 1239.05 272.038 1230.46 270.279 1221.33C266.558 1220.38 263.31 1219.5 260.062 1218.62C260.537 1214.16 275.489 1210.7 289.833 1211.45C291.524 1218.55 293.284 1226 295.11 1233.37C296.599 1239.32 299.847 1240.61 305.124 1237.43C309.725 1234.72 314.393 1232.09 320.279 1228.7C322.106 1224.1 321.633 1218.69 317.709 1213.82C311.62 1213.55 313.04 1220.38 308.913 1221.94C307.289 1220.72 305.529 1219.43 303.838 1218.15C302.552 1217.2 299.915 1218.01 300.05 1214.97C304.245 1213.82 308.507 1212.6 312.566 1211.45C314.732 1205.77 312.296 1201.23 310.808 1196.5C308.71 1189.87 309.454 1187.7 315.882 1184.52C329.346 1177.89 342.946 1171.66 356.478 1165.24C357.966 1164.49 359.251 1163.41 362.499 1161.25C357.222 1160.43 353.974 1159.96 350.523 1159.42C346.667 1151.23 342.607 1143.18 339.089 1134.86C338.142 1132.56 338.345 1129.65 338.548 1127.01C338.751 1123.9 339.495 1120.78 340.036 1117.13C347.14 1112.33 355.125 1110.37 364.259 1111.52C365.409 1114.02 366.694 1115.91 367.235 1118.08C368.25 1122.54 370.686 1125.59 375.151 1126.47C381.579 1127.69 383.947 1132.35 385.571 1137.77C386.721 1141.69 387.804 1145.68 388.819 1149.61C389.902 1153.6 392.743 1155.7 396.6 1156.24C400.186 1156.78 403.907 1156.78 407.426 1157.46C414.462 1158.88 419.334 1162.6 422.717 1169.57C425.761 1175.79 426.032 1182.42 427.927 1189.46C430.16 1188.58 431.784 1187.97 433.34 1187.23C439.294 1184.45 444.977 1182.9 451.201 1187.43C455.058 1190.2 459.795 1190.07 464.125 1187.43C469.741 1184.11 474.95 1184.93 480.904 1187.43C489.632 1191.08 498.902 1193.45 508.983 1196.63C509.998 1199.2 511.013 1202.65 512.637 1205.77C513.99 1208.34 516.155 1210.57 519.538 1214.97C519.944 1210.37 520.485 1208.34 520.146 1206.44C519.417 1202.26 521.159 1199.58 524.544 1197.63C525.384 1202.38 525.936 1207.24 527.319 1211.79C528.267 1214.76 530.568 1217.4 534.355 1217.27C538.144 1217.13 539.769 1214.43 540.648 1211.11C540.987 1209.83 541.392 1208.61 541.798 1207.32C542.745 1207.73 543.827 1207.8 544.099 1208.34C548.902 1217.06 549.444 1217.2 556.277 1210.64C556.886 1210.03 557.631 1209.42 559.052 1208.2C560.27 1208.74 561.691 1209.69 563.314 1210.16C570.148 1211.99 573.666 1209.22 571.568 1202.79C568.591 1193.72 570.351 1184.72 570.283 1175.72C570.283 1167.06 572.583 1165.44 583.68 1164.15C590.784 1173.15 588.619 1185.94 595.114 1195.68C602.692 1194.06 609.187 1190.95 615.209 1186.89C619.81 1183.84 621.84 1179.58 620.081 1173.97C618.66 1169.16 617.375 1164.36 616.292 1159.42C615.006 1153.33 616.089 1150.83 621.299 1148.32C629.553 1144.33 638.281 1141.76 647.415 1140.81C655.602 1139.93 657.903 1141.69 660.203 1149.54C662.098 1156.1 663.654 1162.73 665.616 1169.3C666.428 1171.94 668.119 1174.3 672.449 1172.54C672.314 1169.77 672.246 1166.66 671.976 1163.61C671.637 1159.55 671.029 1155.49 670.894 1151.43C670.894 1150.55 672.314 1149 673.329 1148.8C674.344 1148.59 676.374 1149.27 676.712 1150.15C678.133 1153.46 679.216 1156.92 680.163 1160.43C681.516 1165.24 682.666 1170.04 683.816 1174.57C690.041 1176.74 695.454 1178.7 700.596 1180.46C704.385 1178.5 703.302 1175.66 702.558 1173.15C694.303 1146.16 688.147 1118.55 677.524 1092.37C672.788 1080.66 671.299 1067.54 662.842 1057.39C662.571 1051.37 658.579 1046.49 657.496 1041.01C655.94 1033.23 652.76 1026.33 649.716 1019.29C639.499 995.479 629.012 971.729 618.729 947.913C617.917 945.951 616.833 942.907 617.713 941.621C620.487 937.359 618.524 933.975 617.171 930.051C615.479 925.382 614.668 920.375 613.314 915.571C606.007 889.252 598.7 862.932 591.189 836.68C589.972 832.417 589.092 827.749 584.289 824.637C581.65 826.802 578.943 828.967 576.372 831.064C571.162 829.846 568.591 825.787 565.614 822.539C559.999 816.585 554.721 810.293 549.376 804.068C546.467 800.685 542.881 799.332 538.415 800.076C530.77 801.362 523.192 802.58 515.479 803.662C512.976 804 510.336 803.662 505.871 803.662C507.969 801.023 508.713 799.264 509.998 798.79C512.907 797.64 516.223 797.302 519.132 796.22C521.568 795.272 523.666 793.649 526.643 791.957C523.598 783.905 520.35 776.395 517.914 768.682C515.614 761.442 514.057 753.931 511.96 745.88C517.643 748.676 523.936 749.963 530.837 749.737C531.852 746.963 532.326 743.782 534.085 741.617C535.641 739.723 538.618 738.979 541.257 737.559C541.257 733.364 541.392 729.304 541.257 725.244C540.986 718.952 541.798 713.404 548.158 710.224C548.835 709.884 549.106 708.735 550.188 706.772C548.362 699.872 546.467 691.955 544.234 684.106C538.483 663.538 532.732 642.97 526.846 622.469C525.492 617.733 523.463 613.198 521.636 608.396C506.548 606.501 492.068 605.215 477.589 605.215C475.424 605.215 473.191 606.027 471.229 606.975C469.335 607.854 467.71 609.342 465.613 610.763C464.734 604.471 466.628 600.953 471.161 600.141C473.8 599.667 476.574 599.734 479.348 599.734C487.061 599.802 494.842 600.141 502.556 600.141C507.021 600.141 511.486 599.666 516.561 599.328C516.561 595.945 516.899 593.307 516.493 590.804C515.884 587.691 514.869 584.646 513.651 581.669C510.539 574.159 505.668 566.92 504.518 559.071C503.322 551.103 501.476 543.33 500.129 535.497C501.105 536.302 502.259 537.019 502.826 538.028C503.909 539.99 504.179 542.494 505.532 544.253C514.396 555.823 515.276 570.234 519.809 583.36C520.688 585.931 521.23 588.638 522.177 591.209C524.545 597.704 526.304 598.923 533.273 598.855C546.467 598.72 559.662 598.382 572.854 598.382C575.764 598.382 578.674 599.194 583.07 599.87C579.011 603.862 575.493 604.403 572.042 603.591C565.547 601.967 559.593 603.118 553.301 604.944C548.159 606.433 542.543 606.433 537.13 607.109C534.491 607.448 531.852 607.854 528.537 608.327C529.146 611.507 529.349 614.146 530.161 616.582C533.544 627.408 536.994 638.233 540.513 649.059C541.189 651.156 541.933 653.795 543.489 654.945C546.737 657.246 546.873 659.75 545.926 663.064C545.587 664.215 545.993 665.771 546.467 667.057C550.188 677.815 553.977 688.505 557.698 699.263C558.781 702.443 560.811 704.742 564.059 705.894C566.156 706.638 568.118 707.517 570.688 708.532C570.081 718.749 573.53 727.274 580.432 735.19C584.694 735.258 588.89 731.062 594.167 733.498C596.129 734.378 599.58 731.874 602.422 730.859C606.684 735.122 610.879 731.469 615.818 730.251C616.901 732.822 618.322 735.055 618.863 737.559C621.231 749.061 623.328 760.63 625.696 773.215C627.997 773.35 630.568 773.756 633.071 773.553C640.311 773.011 647.55 771.997 654.79 771.591C656.685 771.456 658.647 772.876 660.474 773.553C659.256 778.763 655.196 777.478 652.625 778.831C649.919 780.252 647.483 782.08 644.1 784.312C637.807 778.832 629.756 780.523 621.637 781.673C602.692 784.379 603.166 783.093 604.451 802.579C604.586 804.406 604.654 806.233 604.722 808.06C604.925 812.457 603.572 816.044 599.444 818.276C597.888 819.088 596.67 820.374 595.317 821.456C595.52 823.215 595.317 824.638 595.791 825.854C613.247 874.164 630.703 922.541 648.362 970.782C651.339 978.901 655.128 986.682 658.85 994.463C674.344 1027.41 688.215 1061.04 701.408 1095.01C709.798 1116.66 718.593 1138.11 727.524 1159.49C730.637 1167 734.832 1174.1 738.418 1181.48C740.583 1185.94 744.575 1189.39 748.838 1189.32C755.265 1189.19 759.934 1192.5 765.144 1194.87C765.888 1195.21 766.903 1194.87 767.782 1194.87C772.563 1184.14 779.578 1177.73 788.824 1175.66C788.805 1175.68 788.785 1175.71 788.766 1175.74C795.935 1169.16 796.258 1169.17 806.078 1174.84C813.994 1171.73 821.234 1167.54 826.714 1159.69C824.887 1154.89 822.181 1150.49 823.602 1144.6C824.818 1139.53 823.466 1133.91 823.128 1126.54C826.646 1123.09 831.384 1118.42 836.188 1113.75C839.028 1115.98 836.592 1117.06 835.78 1118.01C833.751 1120.45 831.179 1122.48 829.354 1125.05C826.579 1128.9 825.293 1133.37 827.594 1137.9C829.624 1141.96 831.247 1145.95 831.721 1150.62C832.127 1154.28 835.713 1155.63 838.961 1153.67C841.667 1152.04 844.374 1150.22 846.674 1148.12C851.951 1143.25 851.68 1139.86 845.388 1132.76C853.033 1123.29 848.771 1110.77 852.425 1099.34C856.417 1102.11 853.44 1104.75 853.778 1106.98C854.32 1110.09 854.319 1113.34 855.131 1116.32C855.807 1118.89 857.364 1121.19 858.649 1123.76C856.62 1127.62 853.846 1131.47 856.011 1136.41C856.958 1138.65 859.462 1140.07 861.424 1138.99C867.175 1135.87 871.911 1131.54 874.279 1125.45C875.159 1123.22 875.429 1119.09 874.076 1117.81C870.423 1114.36 872.858 1111.58 873.129 1108.13C873.738 1099.74 874.819 1091.08 870.558 1082.69C873.458 1081.08 875.682 1079.83 877.875 1078.55C878.013 1086.65 877.116 1094.76 879.421 1103.12C881.718 1103.51 883.714 1103.83 885.692 1104.15C887.344 1099.34 889.284 1094.78 892.547 1090.61C898.298 1083.3 897.689 1077.14 891.194 1067.74C887.811 1069.17 884.365 1070.66 880.917 1072.1C881.959 1067.62 878.352 1065.01 875.971 1061.24C879.083 1058.06 882.127 1054.88 885.375 1051.5C884.698 1041.35 881.654 1031.81 879.354 1022.54C880.842 1017.67 884.631 1015.71 888.217 1013.95C894.306 1010.9 899.651 1007.59 902.967 1000.96C905.064 996.696 909.462 993.584 913.454 989.321C914.401 990.336 916.16 991.351 916.566 992.704C917.108 994.734 917.04 997.102 916.566 999.132C916.093 1001.3 914.604 1003.19 914.131 1005.36C913.928 1006.37 915.01 1007.66 915.822 1009.42C920.897 1007.52 922.859 1003.53 923.941 999.132C925.092 994.599 924.889 990.674 920.829 986.75C916.702 982.758 917.581 978.834 921.844 975.112C923.197 973.894 924.888 973.082 926.377 972.067C927.459 971.323 928.474 970.444 930.233 969.091C925.497 956.506 926.85 942.906 921.911 929.78C915.619 912.933 912.575 894.8 908.38 877.141C904.32 859.887 901.614 842.228 896.472 825.313C890.653 806.302 885.172 787.153 880.504 767.87C879.015 761.713 873.738 757.518 873.94 750.616C874.076 744.798 873.061 738.776 871.708 733.093C867.242 714.08 862.438 695.068 857.702 676.123C855.537 667.327 853.304 658.464 851.004 649.668C850.463 647.571 849.312 645.608 848.365 643.308C840.72 642.902 835.239 647.705 828.474 649.532C822.046 644.323 814.603 640.06 809.461 632.956C807.431 630.182 804.318 629.099 801.003 629.572C793.357 630.587 785.644 631.467 778.134 633.091C754.994 638.03 731.99 643.51 708.851 648.382C704.588 649.261 699.987 648.518 695.589 648.518C695.386 645.202 697.145 644.729 698.904 644.255C722.112 637.624 745.252 630.926 768.392 624.229C768.797 624.093 769.271 623.957 769.677 623.754C780.164 619.627 781.856 617.123 779.354 606.229C777.256 597.028 775.969 587.42 770.083 578.76H760.137C764.196 570.844 771.233 572.129 777.39 569.829C777.39 573.009 777.119 575.512 777.39 577.88C777.999 582.075 781.449 584.239 785.306 583.226C788.824 582.278 790.651 579.504 789.637 576.054C789.028 573.956 787.809 571.994 787.133 569.896C786.998 569.491 788.148 568.679 788.757 568.138C789.027 567.935 789.839 567.867 790.042 568.138C791.598 569.694 793.154 571.25 794.575 572.941C799.041 578.219 801.477 579.03 807.499 576.865C810.07 575.918 812.979 574.7 813.114 571.588C813.317 567.19 809.393 567.19 806.349 566.378C805.943 566.243 805.672 565.837 805.334 565.566C808.176 561.101 811.017 556.703 814.265 551.561C818.663 553.184 823.264 554.808 828.744 556.771C829.285 555.351 830.503 553.455 830.503 551.493C830.503 548.854 829.555 546.148 828.879 543.509C825.902 532.074 822.925 520.64 819.678 509.273C818.798 506.093 819.204 501.83 813.724 500.139C814.468 515.836 822.316 530.112 820.354 546.824C816.837 543.78 813.791 541.276 810.882 538.57C810.341 538.097 810.07 536.811 810.272 536.066C813.385 523.279 806.281 512.724 803.236 501.425C798.974 499.395 795.049 497.568 790.989 495.674C794.914 490.87 799.38 489.245 804.184 487.96C808.514 486.81 812.506 484.712 817.377 482.75C815.212 474.293 813.249 466.512 811.22 458.731C805.13 435.39 799.041 412.046 792.884 388.771C790.786 380.855 789.027 372.87 786.456 365.157C785.035 361.03 780.231 357.241 780.502 353.587C780.84 349.054 780.638 344.724 780.367 340.326C780.029 335.252 774.819 335.048 771.301 331.395C773.195 330.177 775.022 329.027 777.052 327.741C774.954 318.539 772.992 309.676 770.827 300.88C769.948 297.226 768.121 294.114 763.926 293.234C763.046 293.031 761.896 292.896 761.422 292.287C754.859 283.762 745.86 284.304 736.591 285.521C724.006 287.213 711.354 288.566 698.701 290.189C694.574 290.731 690.65 290.731 686.929 288.701C685.779 285.927 686.726 284.235 689.364 283.491C702.964 279.364 717.24 279.837 731.178 277.808C739.297 276.657 747.484 276.049 755.604 275.034C757.768 274.764 759.798 273.816 762.64 273.004C762.031 269.959 761.761 267.321 761.017 264.817C757.295 251.218 753.371 237.618 749.649 224.019C748.905 221.312 747.891 219.282 745.726 217.252C742.816 214.546 740.853 210.825 738.553 207.51C735.711 203.315 735.238 199.118 738.959 195.06C741.801 191.947 741.395 188.497 740.516 184.775C738.283 175.574 736.252 166.372 733.546 154.667C739.026 159.471 739.433 164.072 740.786 167.996C743.898 176.995 746.131 186.129 751.679 194.383C754.182 198.104 754.656 204.126 754.047 208.795C753.438 213.599 754.25 217.726 755.468 222.057C760.204 238.633 764.941 255.21 769.88 272.463C780.841 273.004 791.192 271.854 801.477 271.042C818.73 269.621 835.983 268.268 853.236 266.915C857.161 266.577 861.153 266.239 865.415 268.81C862.844 272.665 859.258 273.478 855.943 273.951C851.478 274.56 846.877 274.357 842.344 274.695C830.097 275.575 817.851 276.725 805.604 277.537C800.125 277.943 795.929 279.905 793.764 285.183C790.99 291.949 785.239 295.535 778.473 298.106C777.999 306.361 780.435 313.736 782.396 321.11C790.38 351.354 798.635 381.6 806.822 411.775C810.408 424.969 814.4 438.027 817.58 451.288C820.219 462.317 827.391 470.707 833.142 479.908C834.63 482.276 838.08 483.427 840.381 484.916C841.26 489.381 836.322 488.434 835.78 492.629C837.201 505.214 848.703 543.239 854.86 554.064C861.626 551.63 869.476 552.237 876.105 548.11C878.27 546.758 879.083 548.448 880.639 549.192C884.157 550.952 885.24 550.275 886.458 546.621C887.676 542.832 890.247 541.005 894.171 541.141C897.148 562.858 899.99 574.227 905.268 585.797C910.139 588.029 915.01 586.135 919.746 584.984C940.044 579.91 960.342 574.7 980.572 569.423C984.496 568.408 988.286 566.852 992.751 569.22C991.127 573.618 986.46 572.806 984.023 575.039C981.723 577.069 979.693 579.437 978.137 580.993C972.589 581.602 967.582 581.399 962.981 582.752C945.931 587.623 929.151 593.51 911.966 597.908C901.208 600.682 894.306 606.433 890.585 616.717C888.42 622.671 885.849 628.491 883.413 634.377C880.368 635.392 877.459 636.406 874.414 637.421C873.331 644.322 875.767 650.344 877.323 656.366C893.629 718.004 909.935 779.576 926.444 841.146C933.007 865.774 939.977 890.267 946.811 914.827C947.419 916.992 948.502 919.022 949.652 921.729C953.847 922.134 958.177 922.541 963.387 923.015C965.214 929.645 966.973 936.141 968.936 943.109C974.956 944.056 980.979 942.771 986.256 941.147C1006.55 934.99 1026.92 928.698 1046.81 919.699C1046.41 916.452 1046.54 913.745 1045.8 911.241C1043.63 904.475 1044.65 898.589 1050.26 894.056C1055.74 889.59 1058.04 884.109 1055.88 876.938C1072.66 867.33 1091.74 866.653 1109.33 859.685C1112.37 865.436 1111.97 871.525 1113.19 877.208C1114.4 883.027 1115.28 888.981 1121.98 891.62C1121.3 897.033 1120.36 901.972 1120.29 906.844C1120.15 911.783 1120.29 916.857 1123.81 921.729C1125.84 921.459 1127.94 921.12 1130.57 920.781C1132.6 927.209 1129.22 935.33 1136.05 941.147C1143.56 936.411 1149.32 930.119 1154.46 923.218C1155.61 921.662 1155.68 918.887 1155.47 916.789C1155.2 913.203 1154.32 909.685 1155.2 905.693C1155.74 907.182 1156.15 908.738 1156.76 910.227C1157.57 912.256 1158.45 914.219 1159.6 916.857C1167.38 912.865 1172.32 906.979 1177.6 901.498C1178.68 900.415 1178.75 898.115 1178.82 896.424C1178.82 895.138 1178.34 893.718 1177.8 892.5C1168.19 867.804 1163.8 841.687 1157.3 816.179C1128.41 702.781 1099.72 589.383 1068.46 476.594C1066.91 470.91 1065.28 465.294 1063.79 459.881C1054.25 456.227 1045.19 460.084 1036.32 459.61C1028.48 451.085 1020.63 442.831 1013.18 434.306C1009.12 429.705 1004.79 428.419 998.705 429.366C976.716 432.952 954.591 436.065 932.602 439.38C930.369 439.718 927.46 441.275 926.039 440.396C918.394 435.862 912.439 439.922 905.809 443.034C899.516 445.944 893.02 447.973 891.396 455.077H873.737C869.204 455.077 864.266 454.266 860.206 455.754C853.575 458.19 847.891 456.499 841.058 454.062C843.967 449.8 848.568 448.109 852.357 448.718C859.732 450.003 865.551 446.552 872.046 444.59C888.555 439.651 905.268 435.05 921.979 430.72C931.181 428.352 940.586 426.66 949.923 424.698C952.629 416.376 951.885 408.528 949.923 401.288C948.028 394.116 947.487 388.094 952.899 382.343C956.756 378.216 955.877 372.938 954.997 367.999C954.253 364.007 952.764 360.151 951.479 356.294C950.058 352.099 950.532 349.663 953.104 347.836C956.486 345.468 959.531 345.536 963.049 348.175C965.958 350.408 968.666 352.843 971.643 354.94C973.807 356.497 976.31 357.579 978.881 359C986.188 356.158 989.639 350.475 990.789 343.506C991.736 337.89 993.903 334.372 999.855 333.289C1001.75 332.951 1003.64 331.055 1005 329.433C1006.96 326.997 1008.31 324.088 1010.48 320.569C1013.66 324.832 1016.36 328.351 1018.87 331.733C1023.33 332.072 1024.21 329.094 1022.66 326.658C1020.42 323.343 1019.48 320.569 1020.49 316.577C1021.17 314.074 1020.9 311.097 1020.36 308.458C1016.36 290.731 1012.24 273.072 1007.97 254.871H997.284C994.984 250.947 994.984 247.699 999.179 245.534C1002.36 243.843 1005.61 242.422 1009.26 240.73C1008.99 237.212 1009.26 234.032 1008.52 231.055C1000.26 196.074 991.872 161.094 983.686 126.114C981.791 118.198 980.572 110.079 979.151 102.704C971.979 96.9532 964.943 91.9463 958.65 86.1953C953.914 81.7975 947.149 81.2556 942.751 76.249C941.398 74.7606 937.541 74.8954 934.902 75.166C924.077 76.3162 913.048 77.0606 902.493 79.4287C882.534 83.9619 862.776 89.5103 842.952 94.6523C840.313 95.3289 837.336 95.8703 835.307 97.4941C830.097 101.621 824.346 100.335 819.068 100.944C817.039 97.4942 818.798 96.0732 820.625 94.6523C820.963 94.3819 821.369 94.1106 821.843 94.043C841.329 90.7276 858.718 81.0527 877.392 75.3691C902.223 67.859 927.054 60.4166 951.885 52.8389C955.268 51.824 958.583 50.4705 961.898 49.3203C962.643 42.4867 960.004 37.0738 958.38 31.458C950.464 3.92044 942.277 -23.6174 934.632 -51.2227C931.722 -61.6423 929.76 -72.4004 926.716 -86ZM403.299 1391.49C402.555 1391.83 401.134 1392.24 401.201 1392.58C401.336 1394.05 401.804 1395.47 402.208 1397.15C403.673 1396.42 404.99 1395.89 404.99 1395.75C404.517 1394.27 403.908 1392.91 403.299 1391.49ZM612.164 1382.22C611.555 1382.56 610.947 1382.97 610.338 1383.31C610.879 1384.19 611.488 1385.06 612.029 1385.94C612.428 1385.35 612.891 1384.81 613.292 1384.22C612.893 1383.55 612.496 1382.89 612.164 1382.22ZM214.177 1368.2C212.31 1367.06 210.292 1366.51 208.573 1368.35C207.423 1369.57 206.611 1371.19 205.935 1372.75C205.732 1373.22 206.408 1374.44 207.017 1374.85C207.626 1375.32 208.777 1375.52 209.453 1375.25C212.795 1374.12 213.89 1371.4 214.177 1368.2ZM88.8828 1358.95C88.0709 1358.68 85.703 1360.57 85.5 1361.79C84.959 1364.83 87.5971 1367.68 89.8975 1366.93C91.2506 1366.46 92.2662 1364.9 94.2959 1363.08C92.0632 1361.25 90.7096 1359.56 88.8828 1358.95ZM1782.75 1351.95C1783.72 1354.09 1784.48 1356.48 1786.06 1358C1787.76 1359.62 1790.19 1359.22 1791.27 1355.5C1788.47 1354.31 1785.61 1353.13 1782.75 1351.95ZM282.188 1335.94C281.511 1336.35 280.563 1336.55 280.225 1337.09C279.954 1337.64 280.36 1338.51 280.428 1339.26C281.365 1338.92 282.303 1338.59 283.307 1338.25C282.786 1337.27 282.519 1336.61 282.188 1335.94ZM295.787 1305.23C294.84 1305.29 293.486 1306.24 293.351 1307.05C293.215 1307.73 294.366 1309.42 295.043 1309.42C295.99 1309.42 296.938 1308.41 298.629 1307.39C297.344 1306.38 296.531 1305.16 295.787 1305.23ZM281.511 1218.21C279.007 1218.35 277.18 1220.52 277.722 1222.82C279.075 1229.45 280.834 1235.94 282.796 1242.44C283.54 1244.94 288.143 1245.35 289.562 1243.05C291.186 1240.41 292.337 1237.5 293.689 1234.66C290.645 1228.91 288.548 1224.51 285.977 1220.38C285.231 1219.16 282.999 1218.15 281.511 1218.21ZM756.957 1204.41C756.619 1204.41 756.212 1204.75 755.874 1204.89C756.137 1205.15 756.401 1205.48 756.664 1205.74L757.769 1205.22C757.755 1205.2 757.225 1204.48 756.957 1204.41ZM524.748 1197.51C524.679 1197.55 524.611 1197.59 524.544 1197.63C524.521 1197.5 524.501 1197.37 524.479 1197.24L524.748 1197.51ZM788.564 1176.02C787.134 1178.05 785.511 1179.99 784.427 1182.22C783.953 1183.1 784.291 1184.99 784.968 1185.74C785.644 1186.55 787.336 1187.16 788.419 1186.96C792.411 1186.08 795.455 1183.98 796.064 1178.77C793.255 1177.77 790.907 1176.89 788.564 1176.02ZM636.454 1156.92C634.627 1158.54 633.342 1159.22 632.868 1160.23C631.99 1162.26 633.884 1165.37 635.98 1165.17C637.063 1165.03 638.956 1163.61 638.89 1163.07C638.551 1161.18 637.537 1159.42 636.454 1156.92ZM358.981 1145.95C357.155 1147.92 355.869 1149.34 354.583 1150.69C355.53 1151.43 356.748 1152.92 357.357 1152.72C358.846 1152.18 360.2 1151.03 361.146 1149.74C361.417 1149.4 360.132 1147.85 358.981 1145.89V1145.95ZM890.721 1102.11C888.532 1100.92 886.806 1102.1 885.756 1104.16C885.854 1104.18 885.953 1104.19 886.052 1104.21C885.874 1104.35 885.699 1104.49 885.529 1104.64C885.523 1104.65 885.517 1104.67 885.511 1104.68C885.515 1104.67 885.519 1104.66 885.522 1104.65C880.523 1108.93 878.884 1114.65 879.015 1121.12C879.015 1123.29 882.263 1124.91 884.09 1123.69C890.315 1119.63 893.427 1113.82 893.156 1106.44C893.156 1104.95 892.006 1102.79 890.721 1102.11ZM905.132 1069.57C901.569 1072.14 900.553 1075.41 902.087 1079.38C903.169 1075.86 903.982 1073.36 905.132 1069.57ZM878.203 1078.36C878.094 1078.43 877.984 1078.49 877.875 1078.55C877.871 1078.33 877.871 1078.11 877.865 1077.89L878.203 1078.36ZM880.842 1072.41L880.504 1072.27C880.642 1072.22 880.779 1072.16 880.917 1072.1C880.893 1072.2 880.87 1072.3 880.842 1072.41ZM899.381 1016.25C895.524 1014.08 892.479 1015.84 889.976 1019.29C891.126 1023.9 893.427 1027.35 898.637 1028.09C902.358 1021.53 902.696 1018.14 899.381 1016.25ZM1126.04 935.125C1123.13 939.726 1124.96 943.447 1128.21 948.928C1130.33 943.064 1129.6 938.463 1126.04 935.125ZM1060.61 894.529C1049.25 899.604 1047.89 902.04 1051.82 910.497C1052.63 912.189 1054.8 914.083 1056.55 914.354C1059.4 914.759 1061.63 912.798 1062.44 909.956C1063.73 905.085 1063.19 900.348 1060.68 894.597L1060.61 894.529ZM1101.55 864.624C1101.15 869.464 1100.81 872.968 1100.34 878.122C1098.49 874.935 1097.61 872.996 1096.34 871.322C1094.85 869.292 1092.48 868.48 1090.38 869.969C1089.1 870.848 1087.88 872.81 1087.88 874.299C1087.88 877.411 1088.83 880.524 1089.23 883.704C1089.44 885.531 1089.5 887.425 1086.19 887.898C1084.9 884.314 1083.75 880.523 1082.13 876.938C1081.66 875.924 1079.96 874.705 1078.95 874.84C1077.33 875.043 1075.16 875.923 1074.42 877.208C1073.33 879.035 1072.86 881.538 1073 883.636C1073.33 889.049 1073.94 894.53 1074.75 899.942C1075.09 901.972 1076.24 903.866 1076.92 905.558C1082.47 905.355 1085.58 903.325 1087 898.859C1087.61 896.897 1086.66 894.055 1090.32 893.176C1094.44 896.965 1098.77 896.897 1103.04 892.635C1105.2 890.47 1107.77 888.576 1109.67 887.021C1111.09 879.578 1108.86 873.555 1106.42 867.736C1105.95 866.586 1103.92 866.112 1101.55 864.624ZM1303.51 878.9C1302.84 879.036 1302.16 879.238 1301.55 879.373C1301.69 879.71 1301.82 880.251 1301.89 880.253C1302.57 880.118 1303.24 879.915 1303.85 879.779C1303.85 879.766 1303.58 878.905 1303.51 878.9ZM1204.8 866.856C1205.88 871.66 1203.78 876.87 1210.01 879.306C1211.97 870.781 1211.7 870.172 1204.8 866.856ZM1247.69 864.15C1246.95 860.7 1244.58 858.941 1240.79 859.144C1238.97 859.211 1237.21 859.481 1235.45 859.752C1229.31 860.685 1223.25 861.618 1217.12 862.616C1215.09 868.236 1215.29 873.597 1218.74 878.765C1228.14 879.577 1235.99 875.923 1244.04 873.217C1247.63 871.999 1248.71 868.616 1247.69 864.15ZM1100.4 878.224H1100.33C1100.33 878.19 1100.34 878.156 1100.34 878.122C1100.36 878.156 1100.38 878.19 1100.4 878.224ZM1386.6 845.07C1386.6 850.212 1386.19 853.798 1386.8 857.181C1387.14 859.075 1388.9 861.443 1390.59 862.188C1392.22 862.864 1394.65 861.714 1396.75 861.376C1395.58 853.978 1392.19 848.52 1386.6 845.002V845.07ZM1403.86 840.194C1401.05 841.586 1398.03 842.774 1397.76 847.438C1398.71 849.197 1399.79 851.7 1401.42 853.798C1405.07 858.669 1408.72 859.278 1414.54 856.233C1417.18 854.813 1418.81 852.377 1417.59 849.468C1416.44 846.626 1415.08 843.175 1412.72 841.619C1410.42 840.131 1406.7 840.672 1403.65 840.334C1403.72 840.289 1403.79 840.24 1403.86 840.194ZM1438.64 798.2C1427.71 801.582 1419.33 806.446 1411.9 811.578C1411.9 822.404 1418.67 830.93 1416.91 841.146C1416.71 842.296 1417.59 843.784 1418.2 844.935C1420.43 849.399 1424.62 851.43 1429.43 850.009C1434.57 848.453 1439.92 847.235 1443.84 842.432C1443.1 835.733 1442.89 829.034 1436.33 824.501C1444.04 816.86 1442.15 808.408 1438.64 798.2ZM1468.06 816.449C1467.25 816.111 1465.42 816.923 1464.61 817.803C1463.12 819.427 1462.04 821.388 1461.03 822.877C1460.01 823.012 1459.6 823.216 1459.13 823.148C1455.34 822.607 1451.55 818.885 1447.9 822.877C1444.31 826.801 1445.73 831.402 1446.88 835.732C1447.43 837.695 1449.12 839.387 1450.2 841.078V841.146C1458.05 838.508 1459.4 837.559 1462.24 832.756C1464.48 828.899 1466.64 824.908 1468.81 820.983C1469.69 819.361 1470.16 817.329 1468.06 816.449ZM1534.78 797.572C1530.31 802.579 1525.78 807.383 1521.58 812.458C1519.75 814.691 1519.62 817.465 1522.8 819.697H1522.87C1526.18 818.006 1529.63 816.179 1533.29 814.354C1534.57 810.091 1535.99 805.827 1537.01 801.43C1537.35 800.009 1537.41 797.64 1534.78 797.572ZM1443.91 796.084C1443.37 803.594 1443.57 810.631 1447.63 817.059C1453.38 817.262 1457.85 815.367 1461.7 811.916C1463.33 810.495 1465.22 808.533 1465.49 806.571C1466.78 798.858 1466.3 791.144 1462.11 784.243C1461.58 783.315 1459.75 783.165 1458.53 782.65C1453.64 787.148 1448.8 791.584 1443.91 796.084ZM1394.92 816.044C1394.54 816.128 1394.16 816.21 1393.78 816.294C1394.09 816.074 1394.41 815.857 1394.72 815.638L1394.92 816.044ZM1400.94 812.916C1400.83 813.013 1400.72 813.109 1400.61 813.202L1400.27 812.863C1400.49 812.881 1400.72 812.899 1400.94 812.916ZM1481.19 772.335C1475.51 772.335 1474.35 776.056 1474.56 779.71C1475.03 786.814 1476.25 793.919 1477.26 801.7C1484.44 801.362 1487.34 798.317 1486.8 793.919C1485.86 786.476 1485.11 778.83 1481.19 772.335ZM787.674 591.209C786.997 591.142 785.982 591.819 785.509 592.495C782.667 596.284 786.727 604.268 792.749 604.944L792.681 604.877C793.763 604.065 795.929 603.117 796.876 601.426C798.567 598.381 797.485 594.931 794.981 593.036C793.155 591.615 790.177 591.547 787.674 591.209ZM824.685 565.771C824.143 565.568 823.331 566.31 822.654 566.581C823.263 567.461 823.94 568.273 824.549 569.152C825.022 568.679 825.496 568.137 825.902 567.596C825.497 566.919 825.226 565.974 824.685 565.771ZM500.129 535.497C500.058 535.439 499.986 535.382 499.917 535.322L500.052 535.052C500.077 535.2 500.103 535.349 500.129 535.497ZM957.027 351.287C958.38 355.82 959.26 359.068 960.343 362.315C961.425 365.563 962.575 368.675 963.726 371.923C969.341 370.773 972.86 368.608 973.942 362.992C968.868 359.339 965.349 353.52 957.027 351.287ZM1114.47 306.022C1111.77 307.758 1109.68 309.128 1107.62 310.537C1107.36 315.663 1107.16 320.785 1106.89 325.711C1113.16 327.245 1118.64 327.38 1123.33 326.117C1121.78 318.878 1119.41 312.112 1114.47 306.022ZM1107.03 299.662C1097.08 301.624 1086.32 300.745 1076.38 305.549C1075.97 311.435 1079.36 315.224 1082.54 318.878C1087.2 324.223 1092.41 324.223 1097.69 319.352C1100.85 316.386 1104.08 313.484 1107.31 310.585C1107.53 307.26 1110.22 303.918 1107.03 299.662ZM1068.53 319.216C1069.14 309.947 1066.37 307.308 1059.4 309.473C1056.76 310.285 1053.85 311.503 1053.71 314.412C1053.51 317.998 1056.83 318.134 1059.46 318.404C1062.44 318.743 1065.49 318.945 1068.53 319.216Z" fill="black"/>
<g filter="url(#filter0_df_2078_2376)">
<path d="M565.057 1299.59C559.057 1296.79 304.057 1334.26 205.557 1382.59L13.5569 1398.59C13.5569 1398.59 20.0568 1509.5 -14.9432 1564.5C-49.9432 1619.5 796.057 1427.5 796.057 1427.5C796.057 1427.5 869.057 1441.09 892.557 1441.09C916.057 1441.09 1434.06 1491 1434.06 1491C1660.89 1429.83 1908.96 1458.39 1926.56 1453.59C1944.16 1448.79 1933.89 1377.59 1926.56 1346.59C1904.56 1336.59 1726.46 1327.19 1680.06 1337.59C1622.06 1350.59 1531.06 1299.59 1473.06 1266.59C1415.06 1233.59 1366.56 1290.09 1245.56 1252.59C1124.56 1215.09 1162.56 1244.59 1114.06 1252.59C1065.56 1260.59 1038.56 1277.59 1009.06 1354.59C979.557 1431.59 921.057 1365.59 892.557 1324.59C864.057 1283.59 839.557 1299.59 808.057 1266.59C776.557 1233.59 806.557 1324.59 670.057 1337.59C533.557 1350.59 634.057 1337.59 565.057 1346.59C496.057 1355.59 572.557 1303.09 565.057 1299.59Z" fill="url(#paint0_linear_2078_2376)"/>
</g>
</g>
<defs>
<filter id="filter0_df_2078_2376" x="-46" y="1204" width="2012.28" height="400.405" filterUnits="userSpaceOnUse" color-interpolation-filters="sRGB">
<feFlood flood-opacity="0" result="BackgroundImageFix"/>
<feColorMatrix in="SourceAlpha" type="matrix" values="0 0 0 0 0 0 0 0 0 0 0 0 0 0 0 0 0 0 127 0" result="hardAlpha"/>
<feOffset dy="4"/>
<feGaussianBlur stdDeviation="2"/>
<feComposite in2="hardAlpha" operator="out"/>
<feColorMatrix type="matrix" values="0 0 0 0 0 0 0 0 0 0 0 0 0 0 0 0 0 0 0.25 0"/>
<feBlend mode="normal" in2="BackgroundImageFix" result="effect1_dropShadow_2078_2376"/>
<feBlend mode="normal" in="SourceGraphic" in2="effect1_dropShadow_2078_2376" result="shape"/>
<feGaussianBlur stdDeviation="15" result="effect2_foregroundBlur_2078_2376"/>
</filter>
<linearGradient id="paint0_linear_2078_2376" x1="1007" y1="1296.5" x2="1009.67" y2="1643.09" gradientUnits="userSpaceOnUse">
<stop/>
<stop offset="1"/>
</linearGradient>
</defs>
</svg>
